<?xml version="1.0" encoding="UTF-8" standalone="no"?>
<svg
   xmlns:dc="http://purl.org/dc/elements/1.1/"
   xmlns:cc="http://creativecommons.org/ns#"
   xmlns:rdf="http://www.w3.org/1999/02/22-rdf-syntax-ns#"
   xmlns:svg="http://www.w3.org/2000/svg"
   xmlns="http://www.w3.org/2000/svg"
   xmlns:sodipodi="http://sodipodi.sourceforge.net/DTD/sodipodi-0.dtd"
   xmlns:inkscape="http://www.inkscape.org/namespaces/inkscape"
   width="36"
   height="36"
   viewBox="0 0 9.5249996 9.5249998"
   version="1.1"
   id="svg1483"
   sodipodi:docname="menu-broken-link.svg"
   inkscape:version="1.0.1 (3bc2e813f5, 2020-09-07)">
  <defs
     id="defs1477">
    <clipPath
       clipPathUnits="userSpaceOnUse"
       id="clipPath134">
      <path
         d="M 0,0 H 792 V 612 H 0 Z"
         id="path132" />
    </clipPath>
    <clipPath
       clipPathUnits="userSpaceOnUse"
       id="clipPath334">
      <path
         d="M 0,0 H 792 V 612 H 0 Z"
         id="path332" />
    </clipPath>
    <clipPath
       clipPathUnits="userSpaceOnUse"
       id="clipPath202">
      <path
         d="M 0,0 H 792 V 612 H 0 Z"
         id="path200" />
    </clipPath>
    <clipPath
       clipPathUnits="userSpaceOnUse"
       id="clipPath398">
      <path
         d="M 0,0 H 792 V 612 H 0 Z"
         id="path396" />
    </clipPath>
    <clipPath
       clipPathUnits="userSpaceOnUse"
       id="clipPath266">
      <path
         d="M 0,0 H 792 V 612 H 0 Z"
         id="path264" />
    </clipPath>
    <clipPath
       clipPathUnits="userSpaceOnUse"
       id="clipPath488">
      <path
         d="M 0,0 H 792 V 612 H 0 Z"
         id="path486" />
    </clipPath>
    <clipPath
       clipPathUnits="userSpaceOnUse"
       id="clipPath512">
      <path
         d="M 0,0 H 792 V 612 H 0 Z"
         id="path510" />
    </clipPath>
  </defs>
  <sodipodi:namedview
     id="base"
     pagecolor="#ffffff"
     bordercolor="#666666"
     borderopacity="1.0"
     inkscape:pageopacity="0.0"
     inkscape:pageshadow="2"
     inkscape:zoom="11.313709"
     inkscape:cx="25.583709"
     inkscape:cy="13.562327"
     inkscape:document-units="mm"
     inkscape:current-layer="layer1"
     inkscape:document-rotation="0"
     showgrid="false"
     fit-margin-top="0"
     fit-margin-left="0"
     fit-margin-right="0"
     fit-margin-bottom="0"
     units="px"
     inkscape:snap-bbox="true"
     inkscape:snap-bbox-midpoints="true"
     inkscape:window-width="1920"
     inkscape:window-height="1007"
     inkscape:window-x="0"
     inkscape:window-y="36"
     inkscape:window-maximized="1" />
  <metadata
     id="metadata1480">
    <rdf:RDF>
      <cc:Work
         rdf:about="">
        <dc:format>image/svg+xml</dc:format>
        <dc:type
           rdf:resource="http://purl.org/dc/dcmitype/StillImage" />
        <dc:title></dc:title>
      </cc:Work>
    </rdf:RDF>
  </metadata>
  <g
     inkscape:label="Layer 1"
     inkscape:groupmode="layer"
     id="layer1"
     transform="translate(-405.66611,53.326338)">
    <g
       id="g506"
       transform="matrix(0.45687602,0,0,-0.45687602,387.72683,71.279333)">
      <g
         id="g508"
         clip-path="url(#clipPath512)">
        <g
           id="g514"
           transform="translate(42.9028,251.886)">
          <path
             d="M 0,0 C -0.003,0.046 -0.007,0.091 -0.01,0.137 0.481,0.46 0.971,0.462 1.46,0.135 1.456,0.09 1.452,0.045 1.448,0 Z"
             style="fill:#635d5c;fill-opacity:1;fill-rule:nonzero;stroke:none"
             id="path516" />
        </g>
        <g
           id="g518"
           transform="translate(39.4056,255.7899)">
          <path
             d="M 0,0 -0.061,-0.004 -0.122,0.005 V 0.729 C -0.081,0.737 -0.04,0.738 0.001,0.734 0.233,0.489 0.234,0.244 0,0"
             style="fill:#d5d0ce;fill-opacity:1;fill-rule:nonzero;stroke:none"
             id="path520" />
        </g>
        <g
           id="g522"
           transform="translate(39.4056,255.7899)">
          <path
             d="M 0,0 C 0,0.245 0.001,0.489 0.001,0.734 0.1,1.754 0.51,2.629 1.238,3.35 2.71,4.81 4.169,6.285 5.665,7.72 7.509,9.491 10.416,9.295 11.918,7.341 12.199,6.976 12.368,6.613 11.947,6.275 11.545,5.953 11.265,6.21 10.985,6.537 9.693,8.045 7.691,8.143 6.277,6.758 4.9,5.408 3.536,4.043 2.186,2.666 0.999,1.454 0.978,-0.406 2.106,-1.644 3.24,-2.888 5.173,-3.034 6.461,-1.907 7.312,-1.162 8.084,-0.327 8.889,0.47 9.149,0.729 9.409,1.054 9.797,0.701 10.197,0.336 9.885,0.064 9.623,-0.198 8.804,-1.015 7.992,-1.84 7.164,-2.649 6.549,-3.25 5.834,-3.673 4.958,-3.769 4.467,-3.769 3.977,-3.768 3.487,-3.767 1.601,-3.457 0.231,-1.977 0,0"
             style="fill:#110f0d;fill-opacity:1;fill-rule:nonzero;stroke:none"
             id="path524" />
        </g>
        <g
           id="g526"
           transform="translate(56.3779,268.3282)">
          <path
             d="m 0,0 c -0.096,-0.612 -0.188,-1.206 -0.283,-1.798 -0.065,-0.404 -0.317,-0.599 -0.708,-0.526 -0.411,0.077 -0.605,0.338 -0.531,0.786 0.101,0.616 0.201,1.233 0.117,1.866 C -1.599,1.796 -2.41,2.677 -3.904,3.015 -5.154,3.298 -6.493,2.733 -7.18,1.574 -7.718,0.666 -8.21,-0.27 -8.692,-1.21 c -0.237,-0.463 -0.549,-0.803 -1.066,-0.551 -0.547,0.266 -0.307,0.709 -0.093,1.104 0.536,0.993 1.041,2.003 1.606,2.978 C -7.272,4.004 -5.7,4.6 -3.882,4.352 -2.177,4.12 -0.793,3.273 -0.263,1.48 -0.121,1.001 -0.084,0.49 0,0"
             style="fill:#110f0d;fill-opacity:1;fill-rule:nonzero;stroke:none"
             id="path528" />
        </g>
        <g
           id="g530"
           transform="translate(50.2802,258.3902)">
          <path
             d="m 0,0 c -1.608,0.015 -2.696,0.595 -3.561,1.625 -0.268,0.319 -0.423,0.696 -0.046,1.017 0.36,0.308 0.68,0.164 0.991,-0.176 C -1.423,1.157 -0.293,0.922 1.403,1.628 1.784,1.787 2.064,1.757 2.252,1.394 2.434,1.043 2.243,0.785 1.95,0.61 1.277,0.21 0.555,-0.029 0,0"
             style="fill:#12110f;fill-opacity:1;fill-rule:nonzero;stroke:none"
             id="path532" />
        </g>
        <g
           id="g534"
           transform="translate(56.6851,262.1646)">
          <path
             d="M 0,0 C 0.177,-0.072 0.418,-0.171 0.659,-0.268 1.433,-0.578 2.212,-0.878 2.98,-1.201 3.292,-1.332 3.498,-1.58 3.372,-1.939 3.234,-2.334 2.902,-2.409 2.55,-2.272 1.596,-1.9 0.648,-1.51 -0.295,-1.109 -0.597,-0.981 -0.712,-0.72 -0.613,-0.398 -0.534,-0.142 -0.346,-0.013 0,0"
             style="fill:#f14f1d;fill-opacity:1;fill-rule:nonzero;stroke:none"
             id="path536" />
        </g>
        <g
           id="g538"
           transform="translate(57.2579,258.2587)">
          <path
             d="m 0,0 c 0.009,-0.241 -0.069,-0.411 -0.255,-0.507 -0.227,-0.118 -0.47,-0.138 -0.662,0.056 -0.468,0.476 -0.937,0.954 -1.377,1.456 -0.191,0.216 -0.171,0.487 0.037,0.712 0.188,0.203 0.472,0.257 0.653,0.112 C -1.01,1.352 -0.498,0.785 -0.035,0.177 0.003,0.127 -0.007,0.039 0,0"
             style="fill:#f14f1d;fill-opacity:1;fill-rule:nonzero;stroke:none"
             id="path540" />
        </g>
        <g
           id="g542"
           transform="translate(57.7484,263.6633)">
          <path
             d="M 0,0 C -0.144,-0.008 -0.289,-0.01 -0.433,-0.022 -0.859,-0.059 -1.176,0.118 -1.196,0.547 -1.217,1.009 -0.873,1.123 -0.46,1.121 -0.1,1.12 0.261,1.164 0.621,1.186 1.005,1.21 1.306,1.078 1.349,0.665 1.392,0.234 1.113,0.076 0.72,0.057 0.48,0.046 0.24,0.02 0,0"
             style="fill:#f14f1d;fill-opacity:1;fill-rule:nonzero;stroke:none"
             id="path544" />
        </g>
      </g>
    </g>
  </g>
</svg>
