<?xml version="1.0" encoding="UTF-8" standalone="no"?>
<svg
   xmlns:dc="http://purl.org/dc/elements/1.1/"
   xmlns:cc="http://creativecommons.org/ns#"
   xmlns:rdf="http://www.w3.org/1999/02/22-rdf-syntax-ns#"
   xmlns:svg="http://www.w3.org/2000/svg"
   xmlns="http://www.w3.org/2000/svg"
   xmlns:sodipodi="http://sodipodi.sourceforge.net/DTD/sodipodi-0.dtd"
   xmlns:inkscape="http://www.inkscape.org/namespaces/inkscape"
   width="36"
   height="36"
   viewBox="0 0 9.5249996 9.5249998"
   version="1.1"
   id="svg1483"
   sodipodi:docname="menu-downtime.svg"
   inkscape:version="1.0.1 (3bc2e813f5, 2020-09-07)">
  <defs
     id="defs1477">
    <clipPath
       clipPathUnits="userSpaceOnUse"
       id="clipPath134">
      <path
         d="M 0,0 H 792 V 612 H 0 Z"
         id="path132" />
    </clipPath>
    <clipPath
       clipPathUnits="userSpaceOnUse"
       id="clipPath334">
      <path
         d="M 0,0 H 792 V 612 H 0 Z"
         id="path332" />
    </clipPath>
    <clipPath
       clipPathUnits="userSpaceOnUse"
       id="clipPath202">
      <path
         d="M 0,0 H 792 V 612 H 0 Z"
         id="path200" />
    </clipPath>
    <clipPath
       clipPathUnits="userSpaceOnUse"
       id="clipPath398">
      <path
         d="M 0,0 H 792 V 612 H 0 Z"
         id="path396" />
    </clipPath>
    <clipPath
       clipPathUnits="userSpaceOnUse"
       id="clipPath266">
      <path
         d="M 0,0 H 792 V 612 H 0 Z"
         id="path264" />
    </clipPath>
    <clipPath
       clipPathUnits="userSpaceOnUse"
       id="clipPath488">
      <path
         d="M 0,0 H 792 V 612 H 0 Z"
         id="path486" />
    </clipPath>
    <clipPath
       clipPathUnits="userSpaceOnUse"
       id="clipPath512">
      <path
         d="M 0,0 H 792 V 612 H 0 Z"
         id="path510" />
    </clipPath>
    <clipPath
       clipPathUnits="userSpaceOnUse"
       id="clipPath426">
      <path
         d="M 0,0 H 792 V 612 H 0 Z"
         id="path424" />
    </clipPath>
    <clipPath
       clipPathUnits="userSpaceOnUse"
       id="clipPath426-2">
      <path
         d="M 0,0 H 792 V 612 H 0 Z"
         id="path424-8" />
    </clipPath>
    <clipPath
       clipPathUnits="userSpaceOnUse"
       id="clipPath444">
      <path
         d="M 0,0 H 792 V 612 H 0 Z"
         id="path442" />
    </clipPath>
    <clipPath
       clipPathUnits="userSpaceOnUse"
       id="clipPath464">
      <path
         d="M 0,0 H 792 V 612 H 0 Z"
         id="path462" />
    </clipPath>
  </defs>
  <sodipodi:namedview
     id="base"
     pagecolor="#ffffff"
     bordercolor="#666666"
     borderopacity="1.0"
     inkscape:pageopacity="0.0"
     inkscape:pageshadow="2"
     inkscape:zoom="11.313709"
     inkscape:cx="25.583709"
     inkscape:cy="2.9557257"
     inkscape:document-units="mm"
     inkscape:current-layer="layer1"
     inkscape:document-rotation="0"
     showgrid="false"
     fit-margin-top="0"
     fit-margin-left="0"
     fit-margin-right="0"
     fit-margin-bottom="0"
     units="px"
     inkscape:snap-bbox="true"
     inkscape:snap-bbox-midpoints="true"
     inkscape:window-width="1920"
     inkscape:window-height="1007"
     inkscape:window-x="0"
     inkscape:window-y="36"
     inkscape:window-maximized="1" />
  <metadata
     id="metadata1480">
    <rdf:RDF>
      <cc:Work
         rdf:about="">
        <dc:format>image/svg+xml</dc:format>
        <dc:type
           rdf:resource="http://purl.org/dc/dcmitype/StillImage" />
        <dc:title></dc:title>
      </cc:Work>
    </rdf:RDF>
  </metadata>
  <g
     inkscape:label="Layer 1"
     inkscape:groupmode="layer"
     id="layer1"
     transform="translate(-405.66611,53.326338)">
    <g
       id="g458"
       transform="matrix(0.38295614,0,0,-0.38295614,391.39988,24.502004)">
      <g
         id="g460"
         clip-path="url(#clipPath464)">
        <g
           id="g466"
           transform="translate(62.1252,190.093)">
          <path
             d="m 0,0 c -0.19,-0.853 -0.304,-1.731 -0.583,-2.554 -1.361,-4.026 -5.055,-6.695 -9.289,-6.767 -4.416,-0.075 -8.249,2.593 -9.708,6.758 -0.06,0.17 -0.106,0.345 -0.176,0.578 h 1.722 c 0.423,-0.742 0.789,-1.53 1.285,-2.226 1.922,-2.697 5.437,-3.953 8.655,-3.145 3.262,0.82 5.731,3.502 6.208,6.744 0.782,5.326 -3.381,9.915 -8.739,9.58 -0.831,-0.052 -1.655,-0.322 -2.462,-0.561 -0.334,-0.099 -0.49,-0.068 -0.683,0.215 -0.24,0.353 -0.546,0.662 -0.848,1.019 1.467,0.764 3.011,1.075 4.647,1.084 4.59,0.023 9.028,-3.35 9.849,-8.55 C -0.081,1.916 -0.041,1.657 0,1.399 Z"
             style="fill:#231f20;fill-opacity:1;fill-rule:nonzero;stroke:none"
             id="path468" />
        </g>
        <g
           id="g470"
           transform="translate(37.2529,195.3886)">
          <path
             d="M 0,0 C 0.068,0.269 0.135,0.538 0.204,0.807 0.845,3.303 2.998,4.913 5.657,4.884 8.024,4.858 10.202,3.094 10.741,0.711 11.523,-2.747 8.989,-5.621 6.007,-5.905 2.768,-6.213 0.317,-3.748 0.096,-1.221 0.089,-1.145 0.033,-1.073 0,-0.999 Z m 2.455,0.012 c 1.051,-1.297 2.008,-2.477 3.007,-3.71 1,1.237 1.961,2.424 3.004,3.714 H 6.595 v 1.871 h -2.3 V 0.012 Z"
             style="fill:#f14f1d;fill-opacity:1;fill-rule:nonzero;stroke:none"
             id="path472" />
        </g>
        <g
           id="g474"
           transform="translate(52.6477,193.3798)">
          <path
             d="M 0,0 C 0,-0.682 0.021,-1.365 -0.009,-2.046 -0.024,-2.397 0.109,-2.582 0.403,-2.75 1.397,-3.317 2.378,-3.908 3.361,-4.496 3.96,-4.854 4.125,-5.333 3.828,-5.81 3.554,-6.251 3.04,-6.323 2.469,-5.988 c -1.202,0.706 -2.396,1.426 -3.602,2.124 -0.419,0.243 -0.598,0.564 -0.592,1.056 0.021,1.613 0.031,3.227 -0.003,4.84 -0.014,0.645 0.387,1.033 0.886,1.036 0.514,0.003 0.836,-0.396 0.841,-1.022 C 0.004,1.364 0,0.682 0,0"
             style="fill:#231f20;fill-opacity:1;fill-rule:nonzero;stroke:none"
             id="path476" />
        </g>
      </g>
    </g>
  </g>
</svg>
