<?xml version="1.0" encoding="UTF-8" standalone="no"?>
<svg
   xmlns:dc="http://purl.org/dc/elements/1.1/"
   xmlns:cc="http://creativecommons.org/ns#"
   xmlns:rdf="http://www.w3.org/1999/02/22-rdf-syntax-ns#"
   xmlns:svg="http://www.w3.org/2000/svg"
   xmlns="http://www.w3.org/2000/svg"
   xmlns:sodipodi="http://sodipodi.sourceforge.net/DTD/sodipodi-0.dtd"
   xmlns:inkscape="http://www.inkscape.org/namespaces/inkscape"
   width="36"
   height="36"
   viewBox="0 0 9.5249996 9.5249998"
   version="1.1"
   id="svg1483"
   sodipodi:docname="menu-css.svg"
   inkscape:version="1.0.1 (3bc2e813f5, 2020-09-07)">
  <defs
     id="defs1477">
    <clipPath
       clipPathUnits="userSpaceOnUse"
       id="clipPath134">
      <path
         d="M 0,0 H 792 V 612 H 0 Z"
         id="path132" />
    </clipPath>
    <clipPath
       clipPathUnits="userSpaceOnUse"
       id="clipPath334">
      <path
         d="M 0,0 H 792 V 612 H 0 Z"
         id="path332" />
    </clipPath>
    <clipPath
       clipPathUnits="userSpaceOnUse"
       id="clipPath202">
      <path
         d="M 0,0 H 792 V 612 H 0 Z"
         id="path200" />
    </clipPath>
    <clipPath
       clipPathUnits="userSpaceOnUse"
       id="clipPath398">
      <path
         d="M 0,0 H 792 V 612 H 0 Z"
         id="path396" />
    </clipPath>
    <clipPath
       clipPathUnits="userSpaceOnUse"
       id="clipPath266">
      <path
         d="M 0,0 H 792 V 612 H 0 Z"
         id="path264" />
    </clipPath>
    <clipPath
       clipPathUnits="userSpaceOnUse"
       id="clipPath488">
      <path
         d="M 0,0 H 792 V 612 H 0 Z"
         id="path486" />
    </clipPath>
    <clipPath
       clipPathUnits="userSpaceOnUse"
       id="clipPath512">
      <path
         d="M 0,0 H 792 V 612 H 0 Z"
         id="path510" />
    </clipPath>
    <clipPath
       clipPathUnits="userSpaceOnUse"
       id="clipPath426">
      <path
         d="M 0,0 H 792 V 612 H 0 Z"
         id="path424" />
    </clipPath>
    <clipPath
       clipPathUnits="userSpaceOnUse"
       id="clipPath426-2">
      <path
         d="M 0,0 H 792 V 612 H 0 Z"
         id="path424-8" />
    </clipPath>
    <clipPath
       clipPathUnits="userSpaceOnUse"
       id="clipPath444">
      <path
         d="M 0,0 H 792 V 612 H 0 Z"
         id="path442" />
    </clipPath>
    <clipPath
       clipPathUnits="userSpaceOnUse"
       id="clipPath464">
      <path
         d="M 0,0 H 792 V 612 H 0 Z"
         id="path462" />
    </clipPath>
    <clipPath
       clipPathUnits="userSpaceOnUse"
       id="clipPath46">
      <path
         d="M 0,0 H 792 V 612 H 0 Z"
         id="path44" />
    </clipPath>
    <clipPath
       clipPathUnits="userSpaceOnUse"
       id="clipPath66">
      <path
         d="M 0,0 H 792 V 612 H 0 Z"
         id="path64" />
    </clipPath>
    <clipPath
       clipPathUnits="userSpaceOnUse"
       id="clipPath286">
      <path
         d="M 0,0 H 792 V 612 H 0 Z"
         id="path284" />
    </clipPath>
    <clipPath
       clipPathUnits="userSpaceOnUse"
       id="clipPath310">
      <path
         d="M 0,0 H 792 V 612 H 0 Z"
         id="path308" />
    </clipPath>
  </defs>
  <sodipodi:namedview
     id="base"
     pagecolor="#ffffff"
     bordercolor="#666666"
     borderopacity="1.0"
     inkscape:pageopacity="0.0"
     inkscape:pageshadow="2"
     inkscape:zoom="11.313709"
     inkscape:cx="25.583709"
     inkscape:cy="17.097861"
     inkscape:document-units="mm"
     inkscape:current-layer="layer1"
     inkscape:document-rotation="0"
     showgrid="false"
     fit-margin-top="0"
     fit-margin-left="0"
     fit-margin-right="0"
     fit-margin-bottom="0"
     units="px"
     inkscape:snap-bbox="true"
     inkscape:snap-bbox-midpoints="true"
     inkscape:window-width="1920"
     inkscape:window-height="1007"
     inkscape:window-x="0"
     inkscape:window-y="36"
     inkscape:window-maximized="1" />
  <metadata
     id="metadata1480">
    <rdf:RDF>
      <cc:Work
         rdf:about="">
        <dc:format>image/svg+xml</dc:format>
        <dc:type
           rdf:resource="http://purl.org/dc/dcmitype/StillImage" />
        <dc:title></dc:title>
      </cc:Work>
    </rdf:RDF>
  </metadata>
  <g
     inkscape:label="Layer 1"
     inkscape:groupmode="layer"
     id="layer1"
     transform="translate(-405.66611,53.326338)">
    <g
       id="g304"
       transform="matrix(0.37244072,0,0,-0.37244072,391.9224,-18.20484)">
      <g
         id="g306"
         clip-path="url(#clipPath310)">
        <g
           id="g312"
           transform="translate(56.8731,71.9902)">
          <path
             d="m 0,0 v 0 c -0.84,0.646 -2.026,-0.096 -1.825,-1.142 0.244,-1.266 -1.439,-1.926 -2.108,-0.825 -0.551,0.908 -1.924,0.648 -2.11,-0.4 v 0 c -0.227,-1.27 -2.033,-1.272 -2.262,-0.002 v 0 c -0.188,1.048 -1.561,1.305 -2.111,0.396 v 0 c -0.666,-1.102 -2.351,-0.446 -2.109,0.821 v 0 c 0.199,1.046 -0.989,1.786 -1.827,1.139 v 0 c -1.016,-0.785 -2.352,0.44 -1.673,1.534 v 0 c 0.561,0.903 -0.282,2.025 -1.296,1.727 -1.228,-0.362 -2.035,1.267 -1.009,2.04 0.846,0.637 0.462,1.991 -0.59,2.082 -1.275,0.11 -1.444,1.923 -0.211,2.27 1.018,0.286 1.145,1.688 0.196,2.156 -1.149,0.567 -0.657,2.319 0.617,2.194 1.051,-0.104 1.673,1.157 0.956,1.939 v 0 c -0.869,0.947 0.218,2.402 1.361,1.82 0.943,-0.479 1.974,0.47 1.586,1.461 v 0 c -0.471,1.2 1.064,2.16 1.921,1.202 v 0 c 0.708,-0.791 2.009,-0.281 2.002,0.784 v 0 c -0.009,1.29 1.766,1.626 2.222,0.421 v 0 c 0.377,-0.995 1.773,-0.994 2.148,0.002 v 0 c 0.454,1.206 2.23,0.873 2.223,-0.417 v 0 c -0.005,-1.065 1.297,-1.572 2.003,-0.78 0.856,0.959 2.392,0.002 1.924,-1.199 v 0 c -0.387,-0.991 0.646,-1.938 1.588,-1.457 v 0 C 2.758,18.349 3.848,16.897 2.981,15.948 2.265,15.164 2.889,13.905 3.94,14.01 5.213,14.138 5.709,12.387 4.561,11.818 3.613,11.348 3.743,9.946 4.761,9.662 5.994,9.318 5.829,7.504 4.554,7.392 3.502,7.299 3.121,5.944 3.968,5.308 v 0 C 4.995,4.538 4.192,2.907 2.962,3.267 1.948,3.563 1.107,2.439 1.67,1.537 v 0 C 2.351,0.445 1.017,-0.783 0,0"
             style="fill:#f14f1d;fill-opacity:1;fill-rule:nonzero;stroke:none"
             id="path314" />
        </g>
        <g
           id="g316"
           transform="translate(56.2144,84.6622)">
          <path
             d="m 0,0 c -0.004,-0.419 -0.127,-0.738 -0.382,-0.996 -2.26,-2.281 -4.518,-4.563 -6.785,-6.837 -0.528,-0.53 -1.336,-0.53 -1.867,-0.002 -1.213,1.207 -2.418,2.422 -3.616,3.645 -0.542,0.553 -0.527,1.396 0.004,1.921 0.532,0.526 1.35,0.517 1.906,-0.036 0.822,-0.819 1.642,-1.641 2.448,-2.476 0.165,-0.171 0.241,-0.139 0.388,0.01 1.845,1.87 3.695,3.733 5.546,5.597 0.522,0.526 1.185,0.623 1.742,0.255 C -0.212,0.815 -0.012,0.432 0,0"
             style="fill:#231f20;fill-opacity:1;fill-rule:nonzero;stroke:none"
             id="path318" />
        </g>
        <g
           id="g320"
           transform="translate(56.2144,86.4245)">
          <path
             d="m 0,0 c -0.004,-0.419 -0.127,-0.738 -0.382,-0.996 -2.26,-2.281 -4.518,-4.563 -6.785,-6.837 -0.528,-0.53 -1.336,-0.53 -1.867,-0.002 -1.213,1.207 -2.418,2.422 -3.616,3.645 -0.542,0.553 -0.527,1.396 0.004,1.921 0.532,0.526 1.35,0.517 1.906,-0.036 0.822,-0.819 1.642,-1.641 2.448,-2.476 0.165,-0.171 0.241,-0.139 0.388,0.01 1.845,1.87 3.695,3.733 5.546,5.597 0.522,0.526 1.185,0.623 1.742,0.256 C -0.212,0.815 -0.012,0.432 0,0"
             style="fill:#ffffff;fill-opacity:1;fill-rule:nonzero;stroke:none"
             id="path322" />
        </g>
      </g>
    </g>
  </g>
</svg>
