<?xml version="1.0" encoding="UTF-8" standalone="no"?>
<svg
   xmlns:dc="http://purl.org/dc/elements/1.1/"
   xmlns:cc="http://creativecommons.org/ns#"
   xmlns:rdf="http://www.w3.org/1999/02/22-rdf-syntax-ns#"
   xmlns:svg="http://www.w3.org/2000/svg"
   xmlns="http://www.w3.org/2000/svg"
   xmlns:sodipodi="http://sodipodi.sourceforge.net/DTD/sodipodi-0.dtd"
   xmlns:inkscape="http://www.inkscape.org/namespaces/inkscape"
   width="36"
   height="36"
   viewBox="0 0 9.5249996 9.5249998"
   version="1.1"
   id="svg1483"
   sodipodi:docname="menu-keyword-density.svg"
   inkscape:version="1.0.1 (3bc2e813f5, 2020-09-07)">
  <defs
     id="defs1477">
    <clipPath
       clipPathUnits="userSpaceOnUse"
       id="clipPath134">
      <path
         d="M 0,0 H 792 V 612 H 0 Z"
         id="path132" />
    </clipPath>
    <clipPath
       clipPathUnits="userSpaceOnUse"
       id="clipPath334">
      <path
         d="M 0,0 H 792 V 612 H 0 Z"
         id="path332" />
    </clipPath>
    <clipPath
       clipPathUnits="userSpaceOnUse"
       id="clipPath202">
      <path
         d="M 0,0 H 792 V 612 H 0 Z"
         id="path200" />
    </clipPath>
    <clipPath
       clipPathUnits="userSpaceOnUse"
       id="clipPath398">
      <path
         d="M 0,0 H 792 V 612 H 0 Z"
         id="path396" />
    </clipPath>
  </defs>
  <sodipodi:namedview
     id="base"
     pagecolor="#ffffff"
     bordercolor="#666666"
     borderopacity="1.0"
     inkscape:pageopacity="0.0"
     inkscape:pageshadow="2"
     inkscape:zoom="11.313709"
     inkscape:cx="25.583709"
     inkscape:cy="13.562327"
     inkscape:document-units="mm"
     inkscape:current-layer="layer1"
     inkscape:document-rotation="0"
     showgrid="false"
     fit-margin-top="0"
     fit-margin-left="0"
     fit-margin-right="0"
     fit-margin-bottom="0"
     units="px"
     inkscape:snap-bbox="true"
     inkscape:snap-bbox-midpoints="true"
     inkscape:window-width="1920"
     inkscape:window-height="1007"
     inkscape:window-x="0"
     inkscape:window-y="36"
     inkscape:window-maximized="1" />
  <metadata
     id="metadata1480">
    <rdf:RDF>
      <cc:Work
         rdf:about="">
        <dc:format>image/svg+xml</dc:format>
        <dc:type
           rdf:resource="http://purl.org/dc/dcmitype/StillImage" />
        <dc:title></dc:title>
      </cc:Work>
    </rdf:RDF>
  </metadata>
  <g
     inkscape:label="Layer 1"
     inkscape:groupmode="layer"
     id="layer1"
     transform="translate(-405.66611,53.326338)">
    <g
       id="g392"
       transform="matrix(0.31888823,0,0,-0.31888823,394.58334,69.952736)">
      <g
         id="g394"
         clip-path="url(#clipPath398)">
        <g
           id="g400"
           transform="translate(34.7544,375.2636)">
          <path
             d="M 0,0 C 0.079,0.203 0.161,0.405 0.237,0.609 0.765,2.038 1.754,2.932 3.284,3.144 4.89,3.368 6.2,2.853 7.055,1.438 7.311,1.015 7.595,0.882 8.073,0.887 c 2.248,0.025 4.497,-0.017 6.745,0.024 1.056,0.019 1.53,-0.828 2.235,-1.33 0.06,-0.042 -0.001,-0.391 -0.107,-0.502 -0.425,-0.445 -0.89,-0.853 -1.347,-1.28 -0.335,0.282 -0.599,0.505 -0.925,0.78 -0.307,-0.248 -0.607,-0.491 -0.935,-0.757 -0.311,0.245 -0.617,0.485 -0.941,0.74 -0.337,-0.261 -0.647,-0.501 -0.975,-0.755 -0.311,0.264 -0.589,0.5 -0.892,0.757 C 10.596,-1.69 10.286,-1.925 9.971,-2.162 9.735,-2.025 9.524,-1.903 9.313,-1.78 L 9.339,-1.806 C 9.188,-1.701 8.968,-1.473 8.898,-1.512 8.313,-1.84 7.586,-2.095 7.222,-2.602 6.248,-3.956 5.003,-4.624 3.378,-4.411 1.679,-4.189 0.596,-3.168 0.134,-1.509 0.117,-1.447 0.046,-1.401 0,-1.348 Z M 2.495,0.628 C 1.775,0.615 1.31,0.113 1.333,-0.627 1.356,-1.35 1.846,-1.822 2.575,-1.824 3.274,-1.825 3.796,-1.302 3.797,-0.6 3.798,0.116 3.241,0.641 2.495,0.628"
             style="fill:#f14f1d;fill-opacity:1;fill-rule:nonzero;stroke:none"
             id="path402" />
        </g>
        <g
           id="g404"
           transform="translate(44.0679,373.4831)">
          <path
             d="m 0,0 c 0.161,-1.554 1.764,-3.194 3.578,-3.604 2.112,-0.478 3.934,0.073 5.323,1.738 1.313,1.574 1.55,3.385 0.746,5.258 C 8.79,5.39 7.181,6.462 5.028,6.545 2.828,6.63 1.198,5.6 0.174,3.648 -0.112,3.102 -0.94,2.784 -1.485,3.078 -1.898,3.3 -1.959,3.671 -1.771,4.096 c 1.118,2.535 3.04,4.09 5.796,4.389 3.891,0.422 7.19,-2.065 7.894,-5.877 0.399,-2.158 -0.224,-4.094 -1.551,-5.819 0,0 0.026,0.027 0.026,0.027 -1.543,-1.639 -3.404,-2.608 -5.695,-2.509 -2.929,0.127 -5.03,1.568 -6.327,4.183 -0.2,0.405 -0.297,0.707 0.365,0.825 0.454,0.08 0.86,0.43 1.288,0.66 C 0.026,-0.025 0,0 0,0"
             style="fill:#231f20;fill-opacity:1;fill-rule:nonzero;stroke:none"
             id="path406" />
        </g>
        <g
           id="g408"
           transform="translate(64.6238,363.0578)">
          <path
             d="M 0,0 C -0.492,-0.544 -0.915,-1.162 -1.481,-1.594 -1.998,-1.989 -2.522,-1.61 -2.948,-1.229 -4.923,0.536 -6.905,2.292 -8.864,4.074 -9.827,4.95 -9.596,6.579 -8.401,6.99 -8.004,7.126 -7.318,6.933 -6.977,6.642 -4.793,4.775 -2.664,2.845 -0.533,0.918 -0.328,0.732 -0.238,0.42 0,0"
             style="fill:#231f20;fill-opacity:1;fill-rule:nonzero;stroke:none"
             id="path410" />
        </g>
        <g
           id="g412"
           transform="translate(54.4623,370.2993)">
          <path
             d="M 0,0 C 0,0 -0.026,-0.027 -0.026,-0.027 0.253,0.167 0.531,0.362 0.85,0.584 1.331,0.383 1.429,0.085 1.045,-0.349 0.83,-0.59 0.658,-0.88 0.41,-1.077 0.255,-1.2 -0.006,-1.189 -0.22,-1.239 -0.229,-1.001 -0.273,-0.757 -0.237,-0.526 -0.209,-0.343 -0.083,-0.175 0,0"
             style="fill:#231f20;fill-opacity:1;fill-rule:nonzero;stroke:none"
             id="path414" />
        </g>
      </g>
    </g>
  </g>
</svg>
