<?xml version="1.0" encoding="UTF-8" standalone="no"?>
<svg
   xmlns:dc="http://purl.org/dc/elements/1.1/"
   xmlns:cc="http://creativecommons.org/ns#"
   xmlns:rdf="http://www.w3.org/1999/02/22-rdf-syntax-ns#"
   xmlns:svg="http://www.w3.org/2000/svg"
   xmlns="http://www.w3.org/2000/svg"
   xmlns:sodipodi="http://sodipodi.sourceforge.net/DTD/sodipodi-0.dtd"
   xmlns:inkscape="http://www.inkscape.org/namespaces/inkscape"
   width="36"
   height="36"
   viewBox="0 0 9.5249996 9.5249998"
   version="1.1"
   id="svg1483"
   sodipodi:docname="menu-browser.svg"
   inkscape:version="1.0.1 (3bc2e813f5, 2020-09-07)">
  <defs
     id="defs1477">
    <clipPath
       clipPathUnits="userSpaceOnUse"
       id="clipPath134">
      <path
         d="M 0,0 H 792 V 612 H 0 Z"
         id="path132" />
    </clipPath>
    <clipPath
       clipPathUnits="userSpaceOnUse"
       id="clipPath334">
      <path
         d="M 0,0 H 792 V 612 H 0 Z"
         id="path332" />
    </clipPath>
    <clipPath
       clipPathUnits="userSpaceOnUse"
       id="clipPath202">
      <path
         d="M 0,0 H 792 V 612 H 0 Z"
         id="path200" />
    </clipPath>
    <clipPath
       clipPathUnits="userSpaceOnUse"
       id="clipPath398">
      <path
         d="M 0,0 H 792 V 612 H 0 Z"
         id="path396" />
    </clipPath>
    <clipPath
       clipPathUnits="userSpaceOnUse"
       id="clipPath266">
      <path
         d="M 0,0 H 792 V 612 H 0 Z"
         id="path264" />
    </clipPath>
    <clipPath
       clipPathUnits="userSpaceOnUse"
       id="clipPath488">
      <path
         d="M 0,0 H 792 V 612 H 0 Z"
         id="path486" />
    </clipPath>
    <clipPath
       clipPathUnits="userSpaceOnUse"
       id="clipPath512">
      <path
         d="M 0,0 H 792 V 612 H 0 Z"
         id="path510" />
    </clipPath>
    <clipPath
       clipPathUnits="userSpaceOnUse"
       id="clipPath426">
      <path
         d="M 0,0 H 792 V 612 H 0 Z"
         id="path424" />
    </clipPath>
    <clipPath
       clipPathUnits="userSpaceOnUse"
       id="clipPath426-2">
      <path
         d="M 0,0 H 792 V 612 H 0 Z"
         id="path424-8" />
    </clipPath>
    <clipPath
       clipPathUnits="userSpaceOnUse"
       id="clipPath444">
      <path
         d="M 0,0 H 792 V 612 H 0 Z"
         id="path442" />
    </clipPath>
  </defs>
  <sodipodi:namedview
     id="base"
     pagecolor="#ffffff"
     bordercolor="#666666"
     borderopacity="1.0"
     inkscape:pageopacity="0.0"
     inkscape:pageshadow="2"
     inkscape:zoom="11.313709"
     inkscape:cx="25.583709"
     inkscape:cy="10.026793"
     inkscape:document-units="mm"
     inkscape:current-layer="layer1"
     inkscape:document-rotation="0"
     showgrid="false"
     fit-margin-top="0"
     fit-margin-left="0"
     fit-margin-right="0"
     fit-margin-bottom="0"
     units="px"
     inkscape:snap-bbox="true"
     inkscape:snap-bbox-midpoints="true"
     inkscape:window-width="1920"
     inkscape:window-height="1007"
     inkscape:window-x="0"
     inkscape:window-y="36"
     inkscape:window-maximized="1" />
  <metadata
     id="metadata1480">
    <rdf:RDF>
      <cc:Work
         rdf:about="">
        <dc:format>image/svg+xml</dc:format>
        <dc:type
           rdf:resource="http://purl.org/dc/dcmitype/StillImage" />
        <dc:title></dc:title>
      </cc:Work>
    </rdf:RDF>
  </metadata>
  <g
     inkscape:label="Layer 1"
     inkscape:groupmode="layer"
     id="layer1"
     transform="translate(-405.66611,53.326338)">
    <g
       id="g2720"
       transform="matrix(1.0855513,0,0,1.0855513,-35.112696,4.1547)">
      <g
         id="g420"
         transform="matrix(0.35277777,0,0,-0.35277777,392.89949,31.594501)">
        <g
           id="g422"
           clip-path="url(#clipPath426-2)">
          <g
             id="g428"
             transform="translate(61.0699,227.2809)">
            <path
               d="m 0,0 c -0.958,0.351 -1.094,1.046 -1.027,1.885 0.056,0.69 0.012,1.387 0.012,2.11 H -22.737 V -7.181 h 10.591 c 0.139,-0.365 0.257,-0.675 0.396,-1.041 h -0.718 c -3.492,0 -6.984,0 -10.476,0 -0.738,0 -0.872,0.129 -0.872,0.847 -0.001,5.63 -0.002,11.26 0,16.89 10e-4,1.059 0.597,1.649 1.67,1.649 6.83,0.002 13.66,0.002 20.49,0 1.023,0 1.665,-0.577 1.668,-1.539 C 0.024,6.489 0.017,3.352 0.016,0.216 0.016,0.147 0.006,0.077 0,0 m -1.017,5.07 c 0,1.553 0.006,3.079 -0.004,4.604 -0.003,0.395 -0.281,0.478 -0.632,0.477 -6.83,-0.004 -13.66,-0.005 -20.49,0.002 -0.471,10e-4 -0.652,-0.191 -0.646,-0.645 0.014,-1.114 0.005,-2.229 0.005,-3.344 V 5.07 Z"
               style="fill:#231f20;fill-opacity:1;fill-rule:nonzero;stroke:none"
               id="path430" />
          </g>
          <g
             id="g432"
             transform="translate(62.0259,223.0066)">
            <path
               d="M 0,0 C -0.496,3.363 -3.615,5.644 -7.035,5.142 -9.842,4.73 -11.88,2.718 -12.29,-0.221 c -0.319,-2.282 0.844,-4.888 3.377,-6.105 0.658,-0.316 1.4,-0.462 2.103,-0.686 h 1.382 c 0.666,0.207 1.37,0.336 1.99,0.636 1.945,0.94 3.114,2.48 3.444,4.61 0.011,0.069 0.062,0.132 0.093,0.198 v 1.247 C 0.066,-0.214 0.016,-0.109 0,0 m -6.451,4.047 c 0.22,0.251 0.514,0.243 0.677,-0.026 0.338,-0.562 0.619,-1.158 0.971,-1.83 h -2.48 c 0.101,0.714 0.368,1.329 0.832,1.856 m -4.817,-4.236 c 0.249,1.344 0.25,1.344 1.629,1.344 h 1.065 C -8.616,0.617 -8.653,0.151 -8.693,-0.362 h -2.549 c -0.011,0.065 -0.036,0.122 -0.026,0.173 m 0.632,-2.729 c -0.121,0.005 -0.299,0.153 -0.342,0.272 -0.138,0.382 -0.225,0.782 -0.347,1.234 h 2.628 c 0.041,-0.505 0.079,-0.983 0.122,-1.518 -0.695,0 -1.379,-0.014 -2.061,0.012 m 0.401,-1.062 h 1.84 c 0.178,-0.539 0.357,-1.08 0.564,-1.708 -1.018,0.327 -1.754,0.89 -2.404,1.708 m 1.841,6.185 h -1.828 c 0.607,0.824 1.371,1.354 2.397,1.728 C -8.034,3.298 -8.208,2.769 -8.394,2.205 m 2.647,-7.971 c -0.196,-0.323 -0.548,-0.326 -0.746,-0.001 -0.333,0.549 -0.598,1.137 -0.937,1.796 h 2.62 c -0.338,-0.658 -0.603,-1.247 -0.937,-1.795 m 1.074,2.855 h -2.882 c -0.032,0.493 -0.064,0.983 -0.099,1.512 h 3.062 C -4.62,-1.912 -4.646,-2.404 -4.673,-2.911 m -2.896,2.548 c -0.025,0.047 -0.054,0.079 -0.056,0.112 -0.098,1.406 -0.098,1.406 1.311,1.406 h 1.637 c 0.031,-0.539 0.058,-1.003 0.088,-1.518 z m 5.58,2.574 H -3.848 C -4.029,2.763 -4.203,3.293 -4.406,3.913 -3.389,3.6 -2.672,3.008 -1.989,2.211 m -2.412,-7.896 c 0.195,0.603 0.366,1.129 0.555,1.711 h 1.843 c -0.646,-0.819 -1.384,-1.381 -2.398,-1.711 m 3.122,3.011 c -0.041,-0.113 -0.232,-0.241 -0.359,-0.245 -0.664,-0.025 -1.329,-0.012 -2.028,-0.012 0.044,0.548 0.081,1.012 0.121,1.52 h 2.63 C -1.04,-1.862 -1.133,-2.277 -1.279,-2.674 m -2.257,2.299 c -0.043,0.491 -0.084,0.968 -0.134,1.53 0.703,0 1.369,0.013 2.033,-0.012 0.127,-0.004 0.319,-0.131 0.36,-0.244 0.145,-0.398 0.237,-0.815 0.363,-1.274 z"
               style="fill:#f14f1d;fill-opacity:1;fill-rule:nonzero;stroke:none"
               id="path434" />
          </g>
        </g>
      </g>
      <path
         d="m 413.51618,-51.791581 h -4.33917 v 1.054453 h 4.33917 z m -0.34396,0.696383 h -3.6583 v -0.334786 h 3.6583 z"
         style="fill:#f14f1d;fill-opacity:1;fill-rule:nonzero;stroke:none;stroke-width:0.352777"
         id="path436" />
      <g
         id="g438"
         transform="matrix(0.35277777,0,0,-0.35277777,392.89949,31.594501)">
        <g
           id="g440"
           clip-path="url(#clipPath444)">
          <g
             id="g446"
             transform="translate(40.3762,235.8602)">
            <path
               d="m 0,0 c -0.589,0.007 -1.041,-0.409 -1.049,-0.966 -0.009,-0.561 0.431,-0.996 1.013,-1.002 0.583,-0.007 1.043,0.415 1.053,0.966 C 1.028,-0.451 0.576,-0.006 0,0"
               style="fill:#f14f1d;fill-opacity:1;fill-rule:nonzero;stroke:none"
               id="path448" />
          </g>
          <g
             id="g450"
             transform="translate(43.4761,235.8602)">
            <path
               d="m 0,0 c -0.588,0.003 -1.037,-0.419 -1.04,-0.975 -0.002,-0.562 0.439,-0.99 1.023,-0.993 0.581,-0.004 1.04,0.426 1.044,0.975 C 1.031,-0.441 0.578,-0.003 0,0"
               style="fill:#f14f1d;fill-opacity:1;fill-rule:nonzero;stroke:none"
               id="path452" />
          </g>
        </g>
      </g>
    </g>
  </g>
</svg>
