<?xml version="1.0" encoding="UTF-8" standalone="no"?>
<svg
   xmlns:dc="http://purl.org/dc/elements/1.1/"
   xmlns:cc="http://creativecommons.org/ns#"
   xmlns:rdf="http://www.w3.org/1999/02/22-rdf-syntax-ns#"
   xmlns:svg="http://www.w3.org/2000/svg"
   xmlns="http://www.w3.org/2000/svg"
   xmlns:sodipodi="http://sodipodi.sourceforge.net/DTD/sodipodi-0.dtd"
   xmlns:inkscape="http://www.inkscape.org/namespaces/inkscape"
   width="36"
   height="36"
   viewBox="0 0 9.5249996 9.5249998"
   version="1.1"
   id="svg1483"
   sodipodi:docname="menu-domain.svg"
   inkscape:version="1.0.1 (3bc2e813f5, 2020-09-07)">
  <defs
     id="defs1477">
    <clipPath
       clipPathUnits="userSpaceOnUse"
       id="clipPath134">
      <path
         d="M 0,0 H 792 V 612 H 0 Z"
         id="path132" />
    </clipPath>
    <clipPath
       clipPathUnits="userSpaceOnUse"
       id="clipPath334">
      <path
         d="M 0,0 H 792 V 612 H 0 Z"
         id="path332" />
    </clipPath>
    <clipPath
       clipPathUnits="userSpaceOnUse"
       id="clipPath202">
      <path
         d="M 0,0 H 792 V 612 H 0 Z"
         id="path200" />
    </clipPath>
  </defs>
  <sodipodi:namedview
     id="base"
     pagecolor="#ffffff"
     bordercolor="#666666"
     borderopacity="1.0"
     inkscape:pageopacity="0.0"
     inkscape:pageshadow="2"
     inkscape:zoom="11.313709"
     inkscape:cx="25.583709"
     inkscape:cy="17.097861"
     inkscape:document-units="mm"
     inkscape:current-layer="layer1"
     inkscape:document-rotation="0"
     showgrid="false"
     fit-margin-top="0"
     fit-margin-left="0"
     fit-margin-right="0"
     fit-margin-bottom="0"
     units="px"
     inkscape:snap-bbox="true"
     inkscape:snap-bbox-midpoints="true"
     inkscape:window-width="1920"
     inkscape:window-height="1007"
     inkscape:window-x="0"
     inkscape:window-y="36"
     inkscape:window-maximized="1" />
  <metadata
     id="metadata1480">
    <rdf:RDF>
      <cc:Work
         rdf:about="">
        <dc:format>image/svg+xml</dc:format>
        <dc:type
           rdf:resource="http://purl.org/dc/dcmitype/StillImage" />
        <dc:title></dc:title>
      </cc:Work>
    </rdf:RDF>
  </metadata>
  <g
     inkscape:label="Layer 1"
     inkscape:groupmode="layer"
     id="layer1"
     transform="translate(-405.66611,53.326338)">
    <g
       id="g196"
       transform="matrix(0.39621835,0,0,-0.39621835,390.74084,113.62988)">
      <g
         id="g198"
         clip-path="url(#clipPath202)">
        <g
           id="g204"
           transform="translate(39.7267,397.3345)">
          <path
             d="M 0,0 C -0.556,0.341 -0.766,0.838 -0.724,1.521 -0.677,2.284 -0.726,3.054 -0.707,3.82 -0.676,5.047 0.101,6.169 1.17,6.598 1.497,6.729 1.779,6.796 2.037,6.452 2.152,6.301 2.333,6.205 2.545,6.036 2.417,6.022 2.354,6.011 2.29,6.009 0.928,5.979 0.04,5.063 0.006,3.628 -0.013,2.846 0.008,2.064 0,1.281 -0.004,0.899 0.168,0.75 0.518,0.751 2.907,0.756 5.295,0.755 7.684,0.751 8.043,0.75 8.194,0.923 8.191,1.294 8.183,2.092 8.202,2.891 8.18,3.688 8.142,5.066 7.229,5.995 5.933,6.006 5.861,6.006 5.789,6.013 5.655,6.019 5.927,6.26 6.147,6.482 6.396,6.659 6.483,6.721 6.647,6.702 6.764,6.672 7.934,6.374 8.854,5.18 8.893,3.867 8.921,2.945 8.898,2.021 8.904,1.098 8.907,0.554 8.557,0.273 8.19,0 Z"
             style="fill:#231f20;fill-opacity:1;fill-rule:nonzero;stroke:none"
             id="path206" />
        </g>
        <g
           id="g208"
           transform="translate(48.9853,397.3345)">
          <path
             d="m 0,0 c 0.112,0.235 0.225,0.47 0.36,0.753 0.645,0 1.324,0 2.003,0 1.378,0 2.756,-0.001 4.133,0.001 C 7.036,0.755 7.119,0.84 7.12,1.4 7.122,3.166 7.104,4.932 7.131,6.697 7.139,7.214 7.272,7.729 7.355,8.29 7.471,8.337 7.618,8.395 7.81,8.471 7.82,8.281 7.835,8.134 7.835,7.986 7.836,5.83 7.813,3.673 7.849,1.518 7.86,0.836 7.676,0.341 7.122,0 Z"
             style="fill:#231f20;fill-opacity:1;fill-rule:nonzero;stroke:none"
             id="path210" />
        </g>
        <g
           id="g212"
           transform="translate(50.5631,399.5904)">
          <path
             d="m 0,0 c 0.85,0 1.603,-0.005 2.356,0.003 0.263,0.002 0.5,-0.04 0.507,-0.372 0.008,-0.336 -0.227,-0.388 -0.491,-0.387 -1.009,0.003 -2.017,-0.002 -3.026,-0.001 -0.533,0 -0.634,0.15 -0.521,0.736 0.607,3.159 1.764,6.087 3.365,8.821 1.753,2.994 3.995,5.505 6.764,7.478 0.169,0.121 0.471,0.266 0.58,0.19 C 9.689,16.361 9.782,16.062 9.795,15.839 9.909,13.918 9.594,12.074 8.866,10.307 8.722,9.959 8.529,9.713 8.186,9.559 7.661,9.325 7.156,9.038 6.52,8.71 6.883,8.628 7.13,8.603 7.353,8.512 7.502,8.451 7.698,8.313 7.723,8.179 7.747,8.05 7.612,7.804 7.487,7.742 6.552,7.279 5.602,6.848 4.657,6.409 4.582,6.374 4.502,6.354 4.343,6.3 4.517,6.207 4.632,6.174 4.71,6.098 4.842,5.971 5.049,5.81 5.042,5.675 5.034,5.534 4.832,5.339 4.677,5.282 3.502,4.856 2.318,4.453 1.134,4.055 0.559,3.862 0.327,3.482 0.633,2.959 1.256,1.893 1.219,1.007 0.202,0.26 0.145,0.218 0.11,0.144 0,0 M 9.089,15.412 C 6.14,13.564 1.568,7.48 1.144,4.859 1.967,5.14 2.772,5.414 3.682,5.725 3.38,5.862 3.175,5.921 3.012,6.042 2.895,6.129 2.761,6.305 2.768,6.432 2.776,6.556 2.941,6.687 3.061,6.779 3.137,6.838 3.26,6.827 3.361,6.852 4.364,7.1 5.35,7.399 6.326,7.945 5.993,8.029 5.724,8.065 5.48,8.169 5.31,8.241 5.176,8.406 5.026,8.53 c 0.122,0.156 0.216,0.371 0.373,0.457 0.695,0.383 1.399,0.753 2.12,1.079 0.427,0.194 0.672,0.486 0.833,0.944 0.492,1.403 0.76,2.839 0.737,4.402 M -0.176,1.125 C 0.171,1.369 0.573,1.606 0.1,2.118 0.002,1.767 -0.087,1.446 -0.176,1.125"
             style="fill:#f14f1d;fill-opacity:1;fill-rule:nonzero;stroke:none"
             id="path214" />
        </g>
        <g
           id="g216"
           transform="translate(41.1458,408.2812)">
          <path
             d="m 0,0 c 0,2.687 0,5.298 0,7.91 0,1.298 0.001,2.596 0.005,3.894 0.002,0.868 0.403,1.287 1.228,1.287 3.17,0.001 6.341,0.009 9.511,-0.015 0.259,-0.001 0.577,-0.149 0.765,-0.342 1.296,-1.329 2.574,-2.679 3.834,-4.047 C 15.515,8.5 15.596,8.186 15.648,7.916 15.699,7.645 15.63,7.351 15.667,7.075 15.752,6.453 15.514,6.033 14.953,5.725 v 2.106 c -0.804,0 -1.555,0 -2.305,0 -0.311,10e-4 -0.622,-0.006 -0.933,0.005 -0.606,0.021 -1.023,0.46 -1.036,1.102 -0.011,0.562 -0.003,1.126 -0.003,1.689 0,0.546 0,1.092 0,1.713 h -0.535 c -2.903,0 -5.807,0 -8.71,0 -0.654,0 -0.713,-0.064 -0.713,-0.744 C 0.72,8.218 0.699,4.839 0.742,1.461 0.75,0.804 0.463,0.434 0,0 m 11.392,11.663 c 0,-0.878 -0.017,-1.763 0.017,-2.646 0.006,-0.147 0.232,-0.401 0.365,-0.407 0.846,-0.037 1.695,-0.019 2.558,-0.019 -0.993,1.038 -1.954,2.042 -2.94,3.072"
             style="fill:#231f20;fill-opacity:1;fill-rule:nonzero;stroke:none"
             id="path218" />
        </g>
        <g
           id="g220"
           transform="translate(41.329,406.3911)">
          <path
             d="M 0,0 C 0.012,1.466 1.138,2.607 2.555,2.588 3.919,2.569 4.998,1.383 4.986,-0.084 4.974,-1.548 3.844,-2.692 2.43,-2.671 1.061,-2.652 -0.012,-1.472 0,0 M 4.27,-0.025 C 4.265,0.971 3.446,1.836 2.511,1.831 1.507,1.827 0.703,0.969 0.716,-0.083 c 0.012,-0.991 0.835,-1.838 1.781,-1.833 0.97,0.004 1.778,0.867 1.773,1.891"
             style="fill:#231f20;fill-opacity:1;fill-rule:nonzero;stroke:none"
             id="path222" />
        </g>
        <g
           id="g224"
           transform="translate(48.9388,413.6722)">
          <path
             d="m 0,0 c -1.512,0 -3.023,0.001 -4.535,0 -0.273,0 -0.581,-0.023 -0.572,0.39 0.009,0.373 0.294,0.367 0.555,0.367 C -1.469,0.755 1.613,0.754 4.696,0.756 4.956,0.756 5.2,0.715 5.203,0.384 5.207,0.015 4.941,-0.003 4.668,-0.003 3.112,0.002 1.556,0 0,0"
             style="fill:#f14f1d;fill-opacity:1;fill-rule:nonzero;stroke:none"
             id="path226" />
        </g>
        <g
           id="g228"
           transform="translate(48.9399,412.1702)">
          <path
             d="m 0,0 c -1.526,0 -3.052,0.001 -4.579,-0.001 -0.271,-0.001 -0.536,0.022 -0.529,0.393 0.006,0.339 0.255,0.364 0.511,0.364 3.097,-0.003 6.194,-0.003 9.291,0 0.258,0 0.505,-0.028 0.507,-0.367 C 5.204,0.021 4.94,-0.002 4.668,-0.002 3.112,0.002 1.556,0 0,0"
             style="fill:#f14f1d;fill-opacity:1;fill-rule:nonzero;stroke:none"
             id="path230" />
        </g>
        <g
           id="g232"
           transform="translate(53.8521,411.394)">
          <path
             d="m 0,0 c -0.224,-0.545 -0.545,-0.75 -1.105,-0.743 -2.741,0.036 -5.482,0.017 -8.223,0.017 -0.118,0 -0.259,-0.04 -0.35,0.013 -0.136,0.08 -0.346,0.252 -0.328,0.34 0.031,0.152 0.209,0.274 0.335,0.399 0.023,0.024 0.085,0.006 0.13,0.006 C -6.415,0.03 -3.289,0.029 -0.163,0.026 -0.121,0.026 -0.078,0.013 0,0"
             style="fill:#f14f1d;fill-opacity:1;fill-rule:nonzero;stroke:none"
             id="path234" />
        </g>
        <g
           id="g236"
           transform="translate(43.9567,409.8663)">
          <path
             d="M 0,0 H 8.839 C 8.651,-0.482 8.404,-0.737 7.83,-0.721 5.937,-0.669 4.041,-0.71 2.147,-0.692 1.851,-0.689 1.553,-0.574 1.262,-0.487 0.839,-0.362 0.421,-0.215 0.001,-0.078 0.001,-0.052 0,-0.026 0,0"
             style="fill:#f14f1d;fill-opacity:1;fill-rule:nonzero;stroke:none"
             id="path238" />
        </g>
        <g
           id="g240"
           transform="translate(51.8871,408.39)">
          <path
             d="m 0,0 c -0.15,-0.542 -0.41,-0.771 -0.96,-0.745 -1.166,0.056 -2.338,0.057 -3.505,0 C -5.025,-0.772 -5.304,-0.55 -5.46,0 Z"
             style="fill:#f14f1d;fill-opacity:1;fill-rule:nonzero;stroke:none"
             id="path242" />
        </g>
        <g
           id="g244"
           transform="translate(51.0895,406.8872)">
          <path
             d="m 0,0 c -0.1,-0.591 -0.39,-0.771 -0.933,-0.743 -1.033,0.054 -2.07,0.016 -3.117,0.016 -0.017,0.262 -0.031,0.478 -0.047,0.727 z"
             style="fill:#f14f1d;fill-opacity:1;fill-rule:nonzero;stroke:none"
             id="path246" />
        </g>
        <g
           id="g248"
           transform="translate(43.7869,402.7785)">
          <path
             d="M 0,0 C 0.189,-0.266 0.376,-0.415 0.365,-0.547 0.355,-0.684 0.169,-0.876 0.031,-0.908 -0.059,-0.929 -0.285,-0.717 -0.296,-0.594 -0.309,-0.45 -0.154,-0.289 0,0"
             style="fill:#231f20;fill-opacity:1;fill-rule:nonzero;stroke:none"
             id="path250" />
        </g>
        <g
           id="g252"
           transform="translate(44.3522,400.7024)">
          <path
             d="m 0,0 c -0.266,-0.176 -0.424,-0.361 -0.547,-0.338 -0.129,0.024 -0.291,0.237 -0.312,0.387 -0.013,0.093 0.21,0.312 0.328,0.313 C -0.394,0.362 -0.257,0.186 0,0"
             style="fill:#231f20;fill-opacity:1;fill-rule:nonzero;stroke:none"
             id="path254" />
        </g>
      </g>
    </g>
  </g>
</svg>
