<?xml version="1.0" encoding="UTF-8" standalone="no"?>
<svg
   xmlns:dc="http://purl.org/dc/elements/1.1/"
   xmlns:cc="http://creativecommons.org/ns#"
   xmlns:rdf="http://www.w3.org/1999/02/22-rdf-syntax-ns#"
   xmlns:svg="http://www.w3.org/2000/svg"
   xmlns="http://www.w3.org/2000/svg"
   xmlns:sodipodi="http://sodipodi.sourceforge.net/DTD/sodipodi-0.dtd"
   xmlns:inkscape="http://www.inkscape.org/namespaces/inkscape"
   width="36"
   height="36"
   viewBox="0 0 9.5249996 9.5249998"
   version="1.1"
   id="svg1483"
   sodipodi:docname="menu-comparison.svg"
   inkscape:version="1.0.1 (3bc2e813f5, 2020-09-07)">
  <defs
     id="defs1477">
    <clipPath
       clipPathUnits="userSpaceOnUse"
       id="clipPath134">
      <path
         d="M 0,0 H 792 V 612 H 0 Z"
         id="path132" />
    </clipPath>
    <clipPath
       clipPathUnits="userSpaceOnUse"
       id="clipPath334">
      <path
         d="M 0,0 H 792 V 612 H 0 Z"
         id="path332" />
    </clipPath>
    <clipPath
       clipPathUnits="userSpaceOnUse"
       id="clipPath202">
      <path
         d="M 0,0 H 792 V 612 H 0 Z"
         id="path200" />
    </clipPath>
    <clipPath
       clipPathUnits="userSpaceOnUse"
       id="clipPath398">
      <path
         d="M 0,0 H 792 V 612 H 0 Z"
         id="path396" />
    </clipPath>
    <clipPath
       clipPathUnits="userSpaceOnUse"
       id="clipPath266">
      <path
         d="M 0,0 H 792 V 612 H 0 Z"
         id="path264" />
    </clipPath>
    <clipPath
       clipPathUnits="userSpaceOnUse"
       id="clipPath488">
      <path
         d="M 0,0 H 792 V 612 H 0 Z"
         id="path486" />
    </clipPath>
    <clipPath
       clipPathUnits="userSpaceOnUse"
       id="clipPath512">
      <path
         d="M 0,0 H 792 V 612 H 0 Z"
         id="path510" />
    </clipPath>
    <clipPath
       clipPathUnits="userSpaceOnUse"
       id="clipPath426">
      <path
         d="M 0,0 H 792 V 612 H 0 Z"
         id="path424" />
    </clipPath>
    <clipPath
       clipPathUnits="userSpaceOnUse"
       id="clipPath426-2">
      <path
         d="M 0,0 H 792 V 612 H 0 Z"
         id="path424-8" />
    </clipPath>
    <clipPath
       clipPathUnits="userSpaceOnUse"
       id="clipPath444">
      <path
         d="M 0,0 H 792 V 612 H 0 Z"
         id="path442" />
    </clipPath>
    <clipPath
       clipPathUnits="userSpaceOnUse"
       id="clipPath464">
      <path
         d="M 0,0 H 792 V 612 H 0 Z"
         id="path462" />
    </clipPath>
    <clipPath
       clipPathUnits="userSpaceOnUse"
       id="clipPath46">
      <path
         d="M 0,0 H 792 V 612 H 0 Z"
         id="path44" />
    </clipPath>
    <clipPath
       clipPathUnits="userSpaceOnUse"
       id="clipPath66">
      <path
         d="M 0,0 H 792 V 612 H 0 Z"
         id="path64" />
    </clipPath>
  </defs>
  <sodipodi:namedview
     id="base"
     pagecolor="#ffffff"
     bordercolor="#666666"
     borderopacity="1.0"
     inkscape:pageopacity="0.0"
     inkscape:pageshadow="2"
     inkscape:zoom="11.313709"
     inkscape:cx="25.583709"
     inkscape:cy="2.9557257"
     inkscape:document-units="mm"
     inkscape:current-layer="layer1"
     inkscape:document-rotation="0"
     showgrid="false"
     fit-margin-top="0"
     fit-margin-left="0"
     fit-margin-right="0"
     fit-margin-bottom="0"
     units="px"
     inkscape:snap-bbox="true"
     inkscape:snap-bbox-midpoints="true"
     inkscape:window-width="1920"
     inkscape:window-height="1007"
     inkscape:window-x="0"
     inkscape:window-y="36"
     inkscape:window-maximized="1" />
  <metadata
     id="metadata1480">
    <rdf:RDF>
      <cc:Work
         rdf:about="">
        <dc:format>image/svg+xml</dc:format>
        <dc:type
           rdf:resource="http://purl.org/dc/dcmitype/StillImage" />
        <dc:title></dc:title>
      </cc:Work>
    </rdf:RDF>
  </metadata>
  <g
     inkscape:label="Layer 1"
     inkscape:groupmode="layer"
     id="layer1"
     transform="translate(-405.66611,53.326338)">
    <g
       id="g2908"
       transform="matrix(0.98074832,0,0,0.98074832,10.324543,-0.71368079)">
      <g
         id="g40"
         transform="matrix(0.35277777,0,0,-0.35277777,390.42879,6.7844132)">
        <g
           id="g42"
           clip-path="url(#clipPath46)">
          <g
             id="g48"
             transform="translate(49.6926,146.8759)">
            <path
               d="m 0,0 c 1.377,0 2.754,0.001 4.131,-0.001 0.447,0 0.773,-0.216 0.872,-0.567 C 5.134,-1.03 4.852,-1.481 4.37,-1.571 4.261,-1.592 4.146,-1.595 4.034,-1.595 c -2.686,-0.001 -5.373,-0.001 -8.059,0 -0.119,10e-4 -0.241,0.005 -0.358,0.028 -0.407,0.079 -0.664,0.413 -0.642,0.818 0.022,0.387 0.317,0.696 0.714,0.74 C -4.214,0.001 -4.116,0 -4.018,0 -2.679,0 -1.339,0 0,0"
               style="fill:#f14f1d;fill-opacity:1;fill-rule:nonzero;stroke:none"
               id="path50" />
          </g>
          <g
             id="g52"
             transform="translate(61.6285,160.2792)">
            <path
               d="m 0,0 c -0.506,-0.071 -1.012,-0.136 -1.562,-0.21 0,0.433 0.011,0.84 -0.005,1.246 -0.007,0.184 0.055,0.253 0.233,0.298 2.09,0.53 3.405,2.467 3.121,4.582 -0.363,2.706 -3.328,4.361 -5.841,3.227 -1.625,-0.734 -2.507,-2.024 -2.51,-3.795 -0.002,-1.751 0.872,-3.014 2.465,-3.779 0.287,-0.138 0.603,-0.216 0.91,-0.323 v -1.662 c -5.831,-0.75 -11.654,-1.499 -17.505,-2.251 0,0.36 0.009,0.685 -0.004,1.01 -0.006,0.153 0.06,0.204 0.195,0.237 2.072,0.503 3.437,2.436 3.187,4.507 -0.286,2.379 -2.581,4.043 -4.963,3.598 -2.593,-0.484 -4.112,-3.202 -3.119,-5.618 0.534,-1.301 1.513,-2.13 2.894,-2.49 0.069,-0.018 0.181,-0.077 0.182,-0.12 0.014,-0.442 0.008,-0.885 0.008,-1.33 -0.122,-0.018 -0.211,-0.032 -0.3,-0.043 -0.514,-0.066 -1.029,-0.128 -1.542,-0.198 -0.457,-0.062 -0.778,-0.453 -0.723,-0.869 0.057,-0.433 0.456,-0.76 0.884,-0.715 0.276,0.029 0.551,0.07 0.827,0.105 1.311,0.17 2.623,0.34 3.935,0.509 1.453,0.187 2.907,0.372 4.36,0.559 0.594,0.076 1.187,0.154 1.813,0.236 -0.667,-2.851 -1.326,-5.67 -1.99,-8.507 h 6.203 c -0.727,2.932 -1.448,5.842 -2.172,8.767 0.94,0.121 1.848,0.237 2.756,0.354 1.297,0.168 2.594,0.338 3.891,0.504 1.558,0.199 3.117,0.391 4.674,0.595 0.624,0.082 0.943,0.66 0.668,1.181 C 0.801,-0.073 0.456,0.064 0,0 m -24.599,2.603 c 0,1.68 1.38,3.042 3.082,3.042 1.702,0 3.083,-1.362 3.083,-3.042 0,-1.68 -1.381,-3.043 -3.083,-3.043 -1.702,0 -3.082,1.363 -3.082,3.043 m 19.161,2.721 c 0,1.68 1.38,3.042 3.082,3.042 1.703,0 3.083,-1.362 3.083,-3.042 0,-1.681 -1.38,-3.043 -3.083,-3.043 -1.702,0 -3.082,1.362 -3.082,3.043"
               style="fill:#231f20;fill-opacity:1;fill-rule:nonzero;stroke:none"
               id="path54" />
          </g>
        </g>
      </g>
      <g
         id="g56"
         transform="matrix(0.35277777,0,0,-0.35277777,404.85225,-50.328754)">
        <path
           d="m 0,0 h -1.542 l -0.312,-0.761 h -0.978 l 1.645,4.028 h 0.863 L 1.285,-0.761 H 0.306 Z M -0.257,0.713 -0.759,2.065 -1.266,0.713 Z"
           style="fill:#f14f1d;fill-opacity:1;fill-rule:nonzero;stroke:none"
           id="path58" />
      </g>
      <g
         id="g60"
         transform="matrix(0.35277777,0,0,-0.35277777,390.42879,6.7844132)">
        <g
           id="g62"
           clip-path="url(#clipPath66)">
          <g
             id="g68"
             transform="translate(59.3208,167.7335)">
            <path
               d="M 0,0 C 0.22,0 0.722,-0.012 1.04,-0.308 1.303,-0.555 1.333,-0.894 1.333,-1.069 1.333,-1.226 1.309,-1.407 1.199,-1.582 1.095,-1.751 0.954,-1.836 0.856,-1.878 1.052,-1.908 1.272,-2.005 1.419,-2.15 1.554,-2.282 1.682,-2.512 1.682,-2.868 1.682,-3.273 1.523,-3.526 1.364,-3.683 1.028,-4.003 0.538,-4.027 0.287,-4.027 H -1.248 V 0 Z m -0.318,-1.636 h 0.153 c 0.128,0 0.342,0.018 0.477,0.114 0.086,0.061 0.165,0.182 0.165,0.357 0,0.175 -0.086,0.283 -0.159,0.338 C 0.183,-0.725 0,-0.725 -0.171,-0.725 h -0.147 z m 0,-1.667 h 0.226 c 0.239,0 0.526,0.006 0.698,0.163 0.085,0.079 0.134,0.193 0.134,0.338 0,0.163 -0.067,0.272 -0.128,0.326 -0.165,0.151 -0.484,0.151 -0.673,0.151 h -0.257 z"
               style="fill:#f14f1d;fill-opacity:1;fill-rule:nonzero;stroke:none"
               id="path70" />
          </g>
        </g>
      </g>
    </g>
  </g>
</svg>
