<?xml version="1.0" encoding="UTF-8" standalone="no"?>
<svg
   xmlns:dc="http://purl.org/dc/elements/1.1/"
   xmlns:cc="http://creativecommons.org/ns#"
   xmlns:rdf="http://www.w3.org/1999/02/22-rdf-syntax-ns#"
   xmlns:svg="http://www.w3.org/2000/svg"
   xmlns="http://www.w3.org/2000/svg"
   xmlns:sodipodi="http://sodipodi.sourceforge.net/DTD/sodipodi-0.dtd"
   xmlns:inkscape="http://www.inkscape.org/namespaces/inkscape"
   width="36"
   height="36"
   viewBox="0 0 9.5249996 9.5249998"
   version="1.1"
   id="svg1483"
   sodipodi:docname="menu-keyword-rank.svg"
   inkscape:version="1.0.1 (3bc2e813f5, 2020-09-07)">
  <defs
     id="defs1477">
    <clipPath
       clipPathUnits="userSpaceOnUse"
       id="clipPath134">
      <path
         d="M 0,0 H 792 V 612 H 0 Z"
         id="path132" />
    </clipPath>
    <clipPath
       clipPathUnits="userSpaceOnUse"
       id="clipPath334">
      <path
         d="M 0,0 H 792 V 612 H 0 Z"
         id="path332" />
    </clipPath>
    <clipPath
       clipPathUnits="userSpaceOnUse"
       id="clipPath202">
      <path
         d="M 0,0 H 792 V 612 H 0 Z"
         id="path200" />
    </clipPath>
    <clipPath
       clipPathUnits="userSpaceOnUse"
       id="clipPath398">
      <path
         d="M 0,0 H 792 V 612 H 0 Z"
         id="path396" />
    </clipPath>
    <clipPath
       clipPathUnits="userSpaceOnUse"
       id="clipPath266">
      <path
         d="M 0,0 H 792 V 612 H 0 Z"
         id="path264" />
    </clipPath>
  </defs>
  <sodipodi:namedview
     id="base"
     pagecolor="#ffffff"
     bordercolor="#666666"
     borderopacity="1.0"
     inkscape:pageopacity="0.0"
     inkscape:pageshadow="2"
     inkscape:zoom="11.313709"
     inkscape:cx="25.583709"
     inkscape:cy="13.562327"
     inkscape:document-units="mm"
     inkscape:current-layer="layer1"
     inkscape:document-rotation="0"
     showgrid="false"
     fit-margin-top="0"
     fit-margin-left="0"
     fit-margin-right="0"
     fit-margin-bottom="0"
     units="px"
     inkscape:snap-bbox="true"
     inkscape:snap-bbox-midpoints="true"
     inkscape:window-width="1920"
     inkscape:window-height="1007"
     inkscape:window-x="0"
     inkscape:window-y="36"
     inkscape:window-maximized="1" />
  <metadata
     id="metadata1480">
    <rdf:RDF>
      <cc:Work
         rdf:about="">
        <dc:format>image/svg+xml</dc:format>
        <dc:type
           rdf:resource="http://purl.org/dc/dcmitype/StillImage" />
        <dc:title></dc:title>
      </cc:Work>
    </rdf:RDF>
  </metadata>
  <g
     inkscape:label="Layer 1"
     inkscape:groupmode="layer"
     id="layer1"
     transform="translate(-405.66611,53.326338)">
    <g
       id="g260"
       transform="matrix(0.38871249,0,0,-0.38871249,391.11383,82.238257)">
      <g
         id="g262"
         clip-path="url(#clipPath266)">
        <g
           id="g268"
           transform="translate(45.3232,333.0859)">
          <path
             d="M 0,0 C 0,0.575 -0.009,1.142 0.002,1.708 0.016,2.43 0.332,2.971 1.016,3.247 1.22,3.329 1.455,3.365 1.677,3.367 3.475,3.376 5.273,3.377 7.071,3.369 8.053,3.365 8.752,2.625 8.739,1.64 8.733,1.098 8.738,0.556 8.738,-0.02 c 0.107,0 0.201,0 0.296,0 1.514,-0.005 3.029,0.002 4.543,-0.021 0.781,-0.012 1.474,-0.741 1.477,-1.529 0.007,-2.163 0.003,-4.326 -10e-4,-6.489 -0.001,-0.486 -0.316,-0.776 -0.826,-0.776 -4.391,0 -8.781,0 -13.172,0 -2.163,0 -4.325,-0.002 -6.488,-0.002 -0.619,0 -0.892,0.268 -0.892,0.881 -10e-4,2.058 -0.002,4.116 0.001,6.174 10e-4,0.904 0.435,1.504 1.243,1.709 0.184,0.046 0.382,0.047 0.574,0.048 1.466,0.003 2.932,0.002 4.398,0.003 0.024,0 0.047,0.009 0.109,0.022 m 7.243,-7.372 v 0.335 c 10e-4,1.514 -0.001,3.029 0.002,4.543 0.002,1.328 0.011,2.657 0.013,3.985 C 7.259,1.907 7.251,1.91 6.839,1.91 5.171,1.909 3.502,1.909 1.834,1.909 1.484,1.909 1.469,1.897 1.471,1.537 1.474,0.703 1.484,-0.131 1.485,-0.965 c 0.002,-2.041 0,-4.082 0,-6.123 v -0.284 z m -7.26,5.87 c -0.057,0.005 -0.096,0.011 -0.135,0.011 -1.457,0 -2.914,0.001 -4.371,-0.002 -0.328,0 -0.346,-0.024 -0.346,-0.369 0.003,-1.756 0.006,-3.513 0.009,-5.269 0.001,-0.078 0,-0.155 0,-0.233 h 4.843 z m 13.597,-5.87 c 0.006,0.063 0.011,0.102 0.011,0.141 0.001,1.813 0,3.626 0.003,5.439 0.001,0.225 -0.086,0.31 -0.319,0.308 -1.449,-0.009 -2.898,-0.006 -4.346,-0.008 -0.061,0 -0.122,-0.012 -0.173,-0.018 v -5.862 z"
             style="fill:#231f20;fill-opacity:1;fill-rule:nonzero;stroke:none"
             id="path270" />
        </g>
        <g
           id="g272"
           transform="translate(49.6189,348.7526)">
          <path
             d="M 0,0 C 0.392,0 0.611,-0.149 0.755,-0.441 1.219,-1.383 1.687,-2.322 2.169,-3.256 2.216,-3.348 2.356,-3.43 2.464,-3.446 3.495,-3.603 4.526,-3.751 5.56,-3.885 5.876,-3.926 6.062,-4.097 6.161,-4.374 6.261,-4.656 6.204,-4.92 5.986,-5.132 5.603,-5.505 5.214,-5.87 4.826,-6.239 4.469,-6.579 4.119,-6.929 3.748,-7.255 3.602,-7.383 3.585,-7.504 3.623,-7.676 c 0.216,-0.977 0.423,-1.957 0.64,-2.934 0.072,-0.324 0.004,-0.598 -0.256,-0.805 -0.274,-0.216 -0.567,-0.194 -0.863,-0.035 -0.961,0.517 -1.925,1.03 -2.883,1.552 -0.137,0.075 -0.241,0.075 -0.379,0 -0.951,-0.517 -1.903,-1.034 -2.866,-1.53 -0.175,-0.091 -0.406,-0.143 -0.598,-0.116 -0.403,0.057 -0.639,0.466 -0.551,0.881 0.208,0.979 0.413,1.96 0.638,2.935 0.051,0.225 0.009,0.363 -0.162,0.52 -0.726,0.67 -1.439,1.354 -2.151,2.038 -0.347,0.333 -0.35,0.844 0.015,1.125 0.143,0.11 0.351,0.156 0.537,0.184 0.975,0.144 1.952,0.276 2.929,0.406 0.159,0.021 0.254,0.082 0.329,0.233 0.455,0.928 0.924,1.85 1.384,2.776 C -0.472,-0.161 -0.262,0.008 0,0 m -3.728,-5.121 c 0.513,-0.487 0.985,-0.952 1.476,-1.395 0.313,-0.282 0.396,-0.601 0.301,-1.003 -0.148,-0.627 -0.274,-1.258 -0.415,-1.916 0.098,0.049 0.17,0.082 0.239,0.119 0.563,0.302 1.129,0.596 1.686,0.909 0.349,0.196 0.678,0.212 1.028,0 0.275,-0.167 0.568,-0.307 0.853,-0.459 0.345,-0.185 0.689,-0.369 1.073,-0.575 -0.149,0.693 -0.289,1.338 -0.428,1.984 -0.077,0.358 -0.015,0.668 0.283,0.918 0.211,0.176 0.402,0.375 0.602,0.564 0.29,0.277 0.581,0.554 0.901,0.859 -0.645,0.09 -1.242,0.192 -1.842,0.25 -0.509,0.049 -0.874,0.227 -1.082,0.738 -0.215,0.53 -0.505,1.029 -0.763,1.542 -0.03,0.06 -0.068,0.116 -0.116,0.199 -0.058,-0.106 -0.101,-0.182 -0.14,-0.259 -0.283,-0.563 -0.565,-1.127 -0.847,-1.69 -0.144,-0.287 -0.355,-0.45 -0.694,-0.487 -0.69,-0.076 -1.376,-0.192 -2.115,-0.298"
             style="fill:#f14f1d;fill-opacity:1;fill-rule:nonzero;stroke:none"
             id="path274" />
        </g>
      </g>
    </g>
  </g>
</svg>
