<?xml version="1.0" encoding="UTF-8" standalone="no"?>
<svg
   xmlns:dc="http://purl.org/dc/elements/1.1/"
   xmlns:cc="http://creativecommons.org/ns#"
   xmlns:rdf="http://www.w3.org/1999/02/22-rdf-syntax-ns#"
   xmlns:svg="http://www.w3.org/2000/svg"
   xmlns="http://www.w3.org/2000/svg"
   xmlns:sodipodi="http://sodipodi.sourceforge.net/DTD/sodipodi-0.dtd"
   xmlns:inkscape="http://www.inkscape.org/namespaces/inkscape"
   width="36"
   height="36"
   viewBox="0 0 9.5249996 9.5249998"
   version="1.1"
   id="svg1483"
   inkscape:version="1.0.1 (3bc2e813f5, 2020-09-07)"
   sodipodi:docname="menu-dashboard.svg">
  <defs
     id="defs1477">
    <clipPath
       clipPathUnits="userSpaceOnUse"
       id="clipPath134">
      <path
         d="M 0,0 H 792 V 612 H 0 Z"
         id="path132" />
    </clipPath>
  </defs>
  <sodipodi:namedview
     id="base"
     pagecolor="#ffffff"
     bordercolor="#666666"
     borderopacity="1.0"
     inkscape:pageopacity="0.0"
     inkscape:pageshadow="2"
     inkscape:zoom="11.313709"
     inkscape:cx="25.583709"
     inkscape:cy="20.633395"
     inkscape:document-units="mm"
     inkscape:current-layer="layer1"
     inkscape:document-rotation="0"
     showgrid="false"
     fit-margin-top="0"
     fit-margin-left="0"
     fit-margin-right="0"
     fit-margin-bottom="0"
     units="px"
     inkscape:snap-bbox="true"
     inkscape:snap-bbox-midpoints="true"
     inkscape:window-width="1920"
     inkscape:window-height="1007"
     inkscape:window-x="0"
     inkscape:window-y="36"
     inkscape:window-maximized="1" />
  <metadata
     id="metadata1480">
    <rdf:RDF>
      <cc:Work
         rdf:about="">
        <dc:format>image/svg+xml</dc:format>
        <dc:type
           rdf:resource="http://purl.org/dc/dcmitype/StillImage" />
        <dc:title></dc:title>
      </cc:Work>
    </rdf:RDF>
  </metadata>
  <g
     inkscape:label="Layer 1"
     inkscape:groupmode="layer"
     id="layer1"
     transform="translate(-405.66611,53.326338)">
    <g
       id="g128"
       transform="matrix(0.34885637,0,0,-0.34885637,393.09432,119.43215)">
      <g
         id="g130"
         clip-path="url(#clipPath134)">
        <g
           id="g136"
           transform="translate(63.3399,489.5856)">
          <path
             d="m 0,0 c 0,1.165 -0.54,1.708 -1.7,1.708 -7.958,0.002 -15.915,0.001 -23.872,0 -1.202,0 -1.73,-0.531 -1.73,-1.74 -0.001,-5.328 -0.001,-10.656 0,-15.984 0,-1.208 0.528,-1.739 1.732,-1.739 3.978,-0.002 7.957,-0.001 11.936,-0.001 3.978,0 7.957,-0.001 11.936,0.001 1.158,0 1.698,0.545 1.698,1.71 C 0.001,-10.696 0.001,-5.348 0,0 m -0.983,-15.939 c 0,-0.728 -0.11,-0.835 -0.852,-0.835 -7.877,-10e-4 -15.755,-10e-4 -23.633,0 -0.742,0 -0.85,0.106 -0.85,0.836 -0.002,4.397 0.006,8.794 -0.012,13.19 -0.002,0.447 0.093,0.572 0.559,0.569 4.04,-0.021 8.08,-0.012 12.121,-0.012 4.04,0 8.081,-0.009 12.121,0.012 0.468,0.003 0.559,-0.125 0.557,-0.57 -0.018,-4.396 -0.01,-8.793 -0.011,-13.19 m -0.429,14.722 c -0.913,0.023 -1.827,0.008 -2.741,0.008 h -9.562 c -3.999,0 -7.999,0.005 -11.998,-0.008 -0.431,-0.002 -0.637,0.04 -0.622,0.567 0.04,1.377 0.01,1.378 1.42,1.378 7.633,0 15.267,0 22.9,0 0.989,0 1.032,-0.043 1.033,-1.02 0,-0.162 -0.018,-0.327 0.003,-0.486 0.045,-0.344 -0.086,-0.448 -0.433,-0.439"
             style="fill:#110f0d;fill-opacity:1;fill-rule:nonzero;stroke:none"
             id="path138" />
        </g>
        <g
           id="g140"
           transform="translate(56.9993,479.6205)">
          <path
             d="m 0,0 c -1.604,0.001 -3.208,0.021 -4.811,-0.013 -0.473,-0.01 -0.564,0.132 -0.556,0.573 0.028,1.58 0.011,3.161 0.011,4.741 -0.001,0.928 -0.192,1.072 -1.087,0.818 -3.856,-1.094 -5.527,-5.538 -3.288,-8.857 0.39,-0.578 -0.045,-0.878 -0.16,-1.301 -0.111,-0.409 -0.433,-0.341 -0.732,-0.339 -0.487,0.002 -0.974,-0.004 -1.461,0.002 -0.332,0.003 -0.571,-0.123 -0.58,-0.473 -0.01,-0.387 0.246,-0.518 0.601,-0.511 0.244,0.005 0.491,0.027 0.731,-0.004 1.201,-0.151 2.243,-0.016 2.637,1.396 0.135,-0.099 0.263,-0.195 0.394,-0.289 3.336,-2.384 7.974,-0.756 9.081,3.188 C 1.023,-0.202 0.877,0 0,0"
             style="fill:#f14f1d;fill-opacity:1;fill-rule:nonzero;stroke:none"
             id="path142" />
        </g>
        <g
           id="g144"
           transform="translate(59.4327,485.4595)">
          <path
             d="M 0,0 C -0.004,0.35 -0.232,0.487 -0.565,0.485 -1.153,0.482 -1.745,0.443 -2.328,0.496 -2.981,0.554 -3.436,0.38 -3.618,-0.286 -3.722,-0.665 -3.894,-0.615 -4.17,-0.428 c -0.572,0.389 -1.206,0.658 -1.891,0.783 -0.561,0.102 -0.757,-0.056 -0.76,-0.618 -0.008,-1.316 0.008,-2.631 -0.007,-3.947 -0.006,-0.504 0.221,-0.683 0.703,-0.669 0.648,0.019 1.298,0.004 1.947,0.004 0.649,0 1.298,-0.005 1.947,0.002 0.597,0.007 0.765,0.205 0.642,0.791 -0.175,0.843 -0.533,1.61 -1.079,2.276 -0.234,0.285 -0.359,0.495 -0.162,0.895 0.199,0.403 0.459,0.429 0.817,0.418 0.487,-0.015 0.974,-0.002 1.46,-0.003 C -0.217,-0.497 0.004,-0.349 0,0"
             style="fill:#f14f1d;fill-opacity:1;fill-rule:nonzero;stroke:none"
             id="path146" />
        </g>
        <g
           id="g148"
           transform="translate(38.6034,485.4476)">
          <path
             d="M 0,0 C 0.508,0.006 1.015,0.002 1.523,0.002 2.071,0.002 2.619,0.006 3.167,0 3.523,-0.004 3.779,0.121 3.77,0.51 3.761,0.861 3.524,0.985 3.193,0.984 2.116,0.98 1.04,0.981 -0.036,0.984 -0.368,0.985 -0.603,0.857 -0.607,0.505 -0.612,0.115 -0.353,-0.004 0,0"
             style="fill:#f14f1d;fill-opacity:1;fill-rule:nonzero;stroke:none"
             id="path150" />
        </g>
        <g
           id="g152"
           transform="translate(38.5549,483.5034)">
          <path
             d="m 0,0 c 0.528,0.002 1.056,0 1.584,0.001 0.568,0 1.137,-0.001 1.705,0 0.309,0 0.515,0.145 0.53,0.459 C 3.835,0.807 3.63,0.979 3.29,0.98 2.193,0.983 1.097,0.98 0,0.982 -0.334,0.982 -0.559,0.842 -0.559,0.491 -0.559,0.141 -0.334,-0.001 0,0"
             style="fill:#f14f1d;fill-opacity:1;fill-rule:nonzero;stroke:none"
             id="path154" />
        </g>
        <g
           id="g156"
           transform="translate(41.8375,482.5379)">
          <path
             d="m 0,0 c -1.096,0.002 -2.193,0 -3.289,0.001 -0.336,0 -0.557,-0.146 -0.553,-0.497 0.005,-0.351 0.233,-0.486 0.566,-0.485 0.528,0.003 1.056,0.001 1.584,0.002 0.569,0 1.137,-0.001 1.706,0 0.31,0.001 0.512,0.152 0.522,0.466 C 0.548,-0.165 0.339,-0.001 0,0"
             style="fill:#f14f1d;fill-opacity:1;fill-rule:nonzero;stroke:none"
             id="path158" />
        </g>
        <g
           id="g160"
           transform="translate(41.796,480.5948)">
          <path
             d="M 0,0 C -1.076,-0.004 -2.152,-0.004 -3.228,0 -3.56,0.001 -3.795,-0.127 -3.8,-0.479 c -0.005,-0.39 0.254,-0.51 0.607,-0.505 0.528,0.006 1.056,0.001 1.584,0.001 0.528,0 1.056,0.005 1.584,-0.001 0.355,-0.004 0.611,0.121 0.602,0.51 C 0.569,-0.124 0.331,0.001 0,0"
             style="fill:#f14f1d;fill-opacity:1;fill-rule:nonzero;stroke:none"
             id="path162" />
        </g>
        <g
           id="g164"
           transform="translate(60.9145,484.4781)">
          <path
             d="m 0,0 c -0.507,0.015 -1.016,0.016 -1.522,-0.003 -0.283,-0.011 -0.441,-0.197 -0.441,-0.48 0,-0.284 0.159,-0.459 0.44,-0.483 0.242,-0.02 0.487,-0.004 0.731,-0.004 v -0.002 c 0.264,0 0.528,-0.01 0.792,0.002 0.283,0.013 0.456,0.173 0.47,0.456 C 0.484,-0.202 0.313,-0.009 0,0"
             style="fill:#f14f1d;fill-opacity:1;fill-rule:nonzero;stroke:none"
             id="path166" />
        </g>
        <g
           id="g168"
           transform="translate(44.8164,476.2167)">
          <path
             d="M 0,0 C -0.004,0.283 -0.163,0.466 -0.445,0.476 -0.952,0.494 -1.461,0.491 -1.968,0.479 -2.251,0.472 -2.422,0.3 -2.433,0.02 c -0.012,-0.313 0.165,-0.492 0.476,-0.511 0.243,-0.015 0.487,-0.003 0.731,-0.003 v 0.003 c 0.264,0 0.529,-0.018 0.791,0.005 C -0.153,-0.462 0.004,-0.284 0,0"
             style="fill:#f14f1d;fill-opacity:1;fill-rule:nonzero;stroke:none"
             id="path170" />
        </g>
        <g
           id="g172"
           transform="translate(60.9272,484.9691)">
          <path
             d="M 0,0 C 0.309,0.015 0.475,0.206 0.461,0.512 0.447,0.824 0.252,0.968 -0.061,0.981 -0.351,0.934 -0.532,0.772 -0.514,0.461 -0.496,0.153 -0.307,-0.015 0,0"
             style="fill:#f14f1d;fill-opacity:1;fill-rule:nonzero;stroke:none"
             id="path174" />
        </g>
        <g
           id="g176"
           transform="translate(42.8639,475.2378)">
          <path
             d="M 0,0 C -0.309,-0.004 -0.485,-0.183 -0.483,-0.489 -0.481,-0.796 -0.299,-0.971 0.009,-0.971 0.32,-0.97 0.472,-0.783 0.5,-0.48 0.466,-0.181 0.312,0.004 0,0"
             style="fill:#f14f1d;fill-opacity:1;fill-rule:nonzero;stroke:none"
             id="path178" />
        </g>
        <g
           id="g180"
           transform="translate(56.9736,488.8569)">
          <path
             d="M 0,0 C 0.312,-0.018 0.475,0.161 0.528,0.486 0.499,0.754 0.368,0.96 0.053,0.973 -0.254,0.986 -0.445,0.821 -0.461,0.513 -0.476,0.206 -0.309,0.018 0,0"
             style="fill:#f14f1d;fill-opacity:1;fill-rule:nonzero;stroke:none"
             id="path182" />
        </g>
        <g
           id="g184"
           transform="translate(58.9279,488.8568)">
          <path
             d="M 0,0 C 0.312,-0.014 0.472,0.168 0.523,0.503 0.484,0.756 0.358,0.966 0.039,0.974 -0.269,0.982 -0.455,0.815 -0.467,0.506 -0.479,0.199 -0.31,0.014 0,0"
             style="fill:#f14f1d;fill-opacity:1;fill-rule:nonzero;stroke:none"
             id="path186" />
        </g>
        <g
           id="g188"
           transform="translate(60.9325,488.8484)">
          <path
             d="M 0,0 C 0.295,0.044 0.473,0.209 0.456,0.519 0.439,0.828 0.251,0.996 -0.056,0.981 -0.364,0.966 -0.532,0.777 -0.519,0.47 -0.505,0.159 -0.31,0.015 0,0"
             style="fill:#f14f1d;fill-opacity:1;fill-rule:nonzero;stroke:none"
             id="path190" />
        </g>
      </g>
    </g>
  </g>
</svg>
