<?xml version="1.0" encoding="UTF-8" standalone="no"?>
<svg
   xmlns:dc="http://purl.org/dc/elements/1.1/"
   xmlns:cc="http://creativecommons.org/ns#"
   xmlns:rdf="http://www.w3.org/1999/02/22-rdf-syntax-ns#"
   xmlns:svg="http://www.w3.org/2000/svg"
   xmlns="http://www.w3.org/2000/svg"
   xmlns:sodipodi="http://sodipodi.sourceforge.net/DTD/sodipodi-0.dtd"
   xmlns:inkscape="http://www.inkscape.org/namespaces/inkscape"
   width="36"
   height="36"
   viewBox="0 0 9.5249996 9.5249998"
   version="1.1"
   id="svg1483"
   sodipodi:docname="menu-image.svg"
   inkscape:version="1.0.1 (3bc2e813f5, 2020-09-07)">
  <defs
     id="defs1477">
    <clipPath
       clipPathUnits="userSpaceOnUse"
       id="clipPath134">
      <path
         d="M 0,0 H 792 V 612 H 0 Z"
         id="path132" />
    </clipPath>
    <clipPath
       clipPathUnits="userSpaceOnUse"
       id="clipPath334">
      <path
         d="M 0,0 H 792 V 612 H 0 Z"
         id="path332" />
    </clipPath>
    <clipPath
       clipPathUnits="userSpaceOnUse"
       id="clipPath202">
      <path
         d="M 0,0 H 792 V 612 H 0 Z"
         id="path200" />
    </clipPath>
    <clipPath
       clipPathUnits="userSpaceOnUse"
       id="clipPath398">
      <path
         d="M 0,0 H 792 V 612 H 0 Z"
         id="path396" />
    </clipPath>
    <clipPath
       clipPathUnits="userSpaceOnUse"
       id="clipPath266">
      <path
         d="M 0,0 H 792 V 612 H 0 Z"
         id="path264" />
    </clipPath>
    <clipPath
       clipPathUnits="userSpaceOnUse"
       id="clipPath488">
      <path
         d="M 0,0 H 792 V 612 H 0 Z"
         id="path486" />
    </clipPath>
    <clipPath
       clipPathUnits="userSpaceOnUse"
       id="clipPath512">
      <path
         d="M 0,0 H 792 V 612 H 0 Z"
         id="path510" />
    </clipPath>
    <clipPath
       clipPathUnits="userSpaceOnUse"
       id="clipPath426">
      <path
         d="M 0,0 H 792 V 612 H 0 Z"
         id="path424" />
    </clipPath>
    <clipPath
       clipPathUnits="userSpaceOnUse"
       id="clipPath426-2">
      <path
         d="M 0,0 H 792 V 612 H 0 Z"
         id="path424-8" />
    </clipPath>
    <clipPath
       clipPathUnits="userSpaceOnUse"
       id="clipPath444">
      <path
         d="M 0,0 H 792 V 612 H 0 Z"
         id="path442" />
    </clipPath>
    <clipPath
       clipPathUnits="userSpaceOnUse"
       id="clipPath464">
      <path
         d="M 0,0 H 792 V 612 H 0 Z"
         id="path462" />
    </clipPath>
    <clipPath
       clipPathUnits="userSpaceOnUse"
       id="clipPath46">
      <path
         d="M 0,0 H 792 V 612 H 0 Z"
         id="path44" />
    </clipPath>
    <clipPath
       clipPathUnits="userSpaceOnUse"
       id="clipPath66">
      <path
         d="M 0,0 H 792 V 612 H 0 Z"
         id="path64" />
    </clipPath>
    <clipPath
       clipPathUnits="userSpaceOnUse"
       id="clipPath286">
      <path
         d="M 0,0 H 792 V 612 H 0 Z"
         id="path284" />
    </clipPath>
    <clipPath
       clipPathUnits="userSpaceOnUse"
       id="clipPath310">
      <path
         d="M 0,0 H 792 V 612 H 0 Z"
         id="path308" />
    </clipPath>
    <clipPath
       clipPathUnits="userSpaceOnUse"
       id="clipPath22">
      <path
         d="M 0,0 H 792 V 612 H 0 Z"
         id="path20" />
    </clipPath>
  </defs>
  <sodipodi:namedview
     id="base"
     pagecolor="#ffffff"
     bordercolor="#666666"
     borderopacity="1.0"
     inkscape:pageopacity="0.0"
     inkscape:pageshadow="2"
     inkscape:zoom="11.313709"
     inkscape:cx="25.583709"
     inkscape:cy="17.097861"
     inkscape:document-units="mm"
     inkscape:current-layer="layer1"
     inkscape:document-rotation="0"
     showgrid="false"
     fit-margin-top="0"
     fit-margin-left="0"
     fit-margin-right="0"
     fit-margin-bottom="0"
     units="px"
     inkscape:snap-bbox="true"
     inkscape:snap-bbox-midpoints="true"
     inkscape:window-width="1920"
     inkscape:window-height="1007"
     inkscape:window-x="0"
     inkscape:window-y="36"
     inkscape:window-maximized="1" />
  <metadata
     id="metadata1480">
    <rdf:RDF>
      <cc:Work
         rdf:about="">
        <dc:format>image/svg+xml</dc:format>
        <dc:type
           rdf:resource="http://purl.org/dc/dcmitype/StillImage" />
        <dc:title></dc:title>
      </cc:Work>
    </rdf:RDF>
  </metadata>
  <g
     inkscape:label="Layer 1"
     inkscape:groupmode="layer"
     id="layer1"
     transform="translate(-405.66611,53.326338)">
    <g
       id="g16"
       transform="matrix(0.39958887,0,0,-0.39958887,390.57332,-30.725727)">
      <g
         id="g18"
         clip-path="url(#clipPath22)">
        <g
           id="g24"
           transform="translate(37.7708,36.8873)">
          <path
             d="m 0,0 v 15.509 c 0.018,0.084 0.035,0.168 0.056,0.251 0.226,0.909 1.019,1.525 1.966,1.525 6.212,0 12.424,0 18.636,0 0.402,0 0.803,0.005 1.204,-0.002 0.529,-0.008 0.989,-0.195 1.367,-0.564 0.424,-0.414 0.608,-0.923 0.608,-1.513 -0.003,-4.775 -0.002,-9.55 -0.002,-14.325 0,-0.213 0.002,-0.426 0,-0.64 C 23.824,-0.718 23.22,-1.496 22.309,-1.723 22.222,-1.745 22.134,-1.76 22.046,-1.779 H 1.779 C 1.763,-1.772 1.748,-1.762 1.731,-1.759 0.89,-1.62 0.342,-1.141 0.078,-0.335 0.042,-0.226 0.026,-0.112 0,0 m 11.924,15.688 c -3.272,0 -6.545,0 -9.817,0 -0.044,0 -0.087,10e-4 -0.131,-0.001 -0.165,-0.006 -0.319,-0.119 -0.363,-0.276 -0.018,-0.065 -0.02,-0.136 -0.02,-0.204 -10e-4,-4.97 -10e-4,-9.941 0,-14.911 0,-0.054 0.002,-0.109 0.011,-0.162 0.027,-0.156 0.165,-0.289 0.322,-0.31 0.06,-0.009 0.122,-0.01 0.183,-0.01 6.538,0 13.076,0 19.614,0 0.033,0 0.065,-0.001 0.098,0 0.262,0.011 0.421,0.174 0.421,0.436 0,5.003 0,10.006 0,15.009 0,0.043 -0.003,0.087 -0.014,0.128 -0.054,0.2 -0.203,0.301 -0.442,0.301 -3.287,0 -6.574,0 -9.862,0"
             style="fill:#231f20;fill-opacity:1;fill-rule:nonzero;stroke:none"
             id="path26" />
        </g>
        <g
           id="g28"
           transform="translate(44.9186,44.633)">
          <path
             d="M 0,0 C 0.658,-0.659 1.314,-1.316 1.969,-1.971 4.093,0.154 6.205,2.267 8.325,4.388 8.373,4.343 8.402,4.317 8.429,4.29 10.096,2.624 11.763,0.957 13.432,-0.708 13.484,-0.76 13.51,-0.81 13.51,-0.886 13.508,-2.668 13.508,-4.45 13.508,-6.232 V -6.35 h -0.127 c -5.742,0 -11.484,0 -17.226,-0.003 -0.107,0 -0.131,0.032 -0.131,0.134 0.004,0.719 10e-4,1.439 0.005,2.158 10e-4,0.054 0.027,0.121 0.065,0.159 1.279,1.283 2.56,2.563 3.842,3.843 C -0.044,-0.039 -0.022,-0.02 0,0"
             style="fill:#f14f1d;fill-opacity:1;fill-rule:nonzero;stroke:none"
             id="path30" />
        </g>
        <g
           id="g32"
           transform="translate(43.3281,46.2262)">
          <path
             d="M 0,0 C -1.32,0.009 -2.389,1.08 -2.382,2.389 -2.376,3.705 -1.304,4.771 0.01,4.766 1.336,4.761 2.398,3.69 2.386,2.368 2.375,1.051 1.307,-0.009 0,0"
             style="fill:#f14f1d;fill-opacity:1;fill-rule:nonzero;stroke:none"
             id="path34" />
        </g>
      </g>
    </g>
  </g>
</svg>
