<?xml version="1.0" encoding="UTF-8" standalone="no"?>
<svg
   xmlns:dc="http://purl.org/dc/elements/1.1/"
   xmlns:cc="http://creativecommons.org/ns#"
   xmlns:rdf="http://www.w3.org/1999/02/22-rdf-syntax-ns#"
   xmlns:svg="http://www.w3.org/2000/svg"
   xmlns="http://www.w3.org/2000/svg"
   xmlns:sodipodi="http://sodipodi.sourceforge.net/DTD/sodipodi-0.dtd"
   xmlns:inkscape="http://www.inkscape.org/namespaces/inkscape"
   width="36"
   height="36"
   viewBox="0 0 9.5249996 9.5249998"
   version="1.1"
   id="svg1483"
   sodipodi:docname="menu-readability.svg"
   inkscape:version="1.0.1 (3bc2e813f5, 2020-09-07)">
  <defs
     id="defs1477">
    <clipPath
       clipPathUnits="userSpaceOnUse"
       id="clipPath134">
      <path
         d="M 0,0 H 792 V 612 H 0 Z"
         id="path132" />
    </clipPath>
    <clipPath
       clipPathUnits="userSpaceOnUse"
       id="clipPath334">
      <path
         d="M 0,0 H 792 V 612 H 0 Z"
         id="path332" />
    </clipPath>
  </defs>
  <sodipodi:namedview
     id="base"
     pagecolor="#ffffff"
     bordercolor="#666666"
     borderopacity="1.0"
     inkscape:pageopacity="0.0"
     inkscape:pageshadow="2"
     inkscape:zoom="11.313709"
     inkscape:cx="25.583709"
     inkscape:cy="17.097861"
     inkscape:document-units="mm"
     inkscape:current-layer="layer1"
     inkscape:document-rotation="0"
     showgrid="false"
     fit-margin-top="0"
     fit-margin-left="0"
     fit-margin-right="0"
     fit-margin-bottom="0"
     units="px"
     inkscape:snap-bbox="true"
     inkscape:snap-bbox-midpoints="true"
     inkscape:window-width="1920"
     inkscape:window-height="1007"
     inkscape:window-x="0"
     inkscape:window-y="36"
     inkscape:window-maximized="1" />
  <metadata
     id="metadata1480">
    <rdf:RDF>
      <cc:Work
         rdf:about="">
        <dc:format>image/svg+xml</dc:format>
        <dc:type
           rdf:resource="http://purl.org/dc/dcmitype/StillImage" />
        <dc:title></dc:title>
      </cc:Work>
    </rdf:RDF>
  </metadata>
  <g
     inkscape:label="Layer 1"
     inkscape:groupmode="layer"
     id="layer1"
     transform="translate(-405.66611,53.326338)">
    <g
       id="g328"
       transform="matrix(0.34884835,0,0,-0.34884835,393.09476,106.94615)">
      <g
         id="g330"
         clip-path="url(#clipPath334)">
        <g
           id="g336"
           transform="translate(49.1517,459.1426)">
          <path
             d="M 0,0 H 1.066 C 1.115,-0.017 1.163,-0.044 1.213,-0.051 4.52,-0.522 6.366,-4.163 4.741,-7.02 4.561,-7.335 4.339,-7.627 4.127,-7.944 4.336,-7.972 4.539,-7.99 4.738,-8.028 c 1.468,-0.277 2.651,-1 3.528,-2.189 0.112,-0.153 0.213,-0.179 0.395,-0.127 0.951,0.275 1.906,0.539 2.862,0.797 0.584,0.157 1.052,-0.197 1.056,-0.791 0.005,-0.731 0.006,-1.462 -0.002,-2.193 -0.002,-0.164 0.036,-0.253 0.205,-0.333 0.882,-0.419 1.361,-1.117 1.394,-2.083 0.018,-0.547 0.017,-1.096 0,-1.644 -0.031,-0.965 -0.506,-1.665 -1.385,-2.091 -0.161,-0.077 -0.216,-0.154 -0.215,-0.327 0.008,-1.244 0.006,-2.489 0.004,-3.733 -10e-4,-0.462 -0.203,-0.735 -0.658,-0.861 -3.696,-1.032 -7.392,-2.063 -11.092,-3.082 -0.193,-0.054 -0.429,-0.049 -0.622,0.005 -3.674,1.014 -7.344,2.04 -11.014,3.065 -0.522,0.146 -0.708,0.394 -0.708,0.927 -0.001,1.227 -0.004,2.454 0.004,3.681 10e-4,0.175 -0.053,0.255 -0.217,0.326 -0.434,0.185 -0.786,0.48 -1.017,0.886 -0.148,0.26 -0.249,0.546 -0.371,0.82 v 2.35 c 0.018,0.04 0.043,0.077 0.053,0.118 0.185,0.781 0.649,1.333 1.389,1.675 0.076,0.035 0.151,0.163 0.152,0.249 0.012,0.748 -0.007,1.497 0.016,2.244 0.006,0.194 0.085,0.416 0.205,0.568 0.206,0.263 0.514,0.319 0.843,0.227 0.936,-0.261 1.876,-0.512 2.807,-0.789 0.239,-0.071 0.357,-0.018 0.498,0.171 0.881,1.189 2.088,1.877 3.549,2.154 0.176,0.033 0.355,0.045 0.568,0.071 -0.091,0.113 -0.152,0.187 -0.211,0.262 -0.582,0.742 -0.924,1.581 -1.007,2.51 -0.191,2.132 1.102,4.129 3.156,4.876 C -0.743,-0.161 -0.366,-0.095 0,0 m -9.917,-11.333 c 0,-0.423 0.009,-0.814 -0.004,-1.205 -0.006,-0.172 0.05,-0.25 0.213,-0.328 0.885,-0.42 1.353,-1.125 1.386,-2.088 0.02,-0.547 0.018,-1.096 10e-4,-1.644 -0.03,-0.966 -0.508,-1.664 -1.388,-2.087 -0.166,-0.079 -0.21,-0.163 -0.209,-0.331 0.007,-0.984 0.002,-1.967 10e-4,-2.951 0,-0.085 0,-0.171 0,-0.261 3.222,-0.898 6.422,-1.789 9.634,-2.684 v 10.895 c -3.208,0.894 -6.402,1.784 -9.634,2.684 M 1.35,-14.016 v -10.896 c 3.22,0.897 6.42,1.789 9.633,2.684 0,1.124 0.003,2.228 -0.009,3.333 -10e-4,0.068 -0.11,0.159 -0.191,0.198 -0.9,0.444 -1.371,1.155 -1.397,2.14 -0.013,0.487 -10e-4,0.975 -0.003,1.462 -0.004,1.054 0.478,1.807 1.447,2.266 0.064,0.03 0.142,0.116 0.144,0.177 0.012,0.432 0.006,0.864 0.006,1.319 -3.228,-0.9 -6.428,-1.791 -9.63,-2.683 m -4.015,9.275 c -0.011,-1.733 1.438,-3.187 3.185,-3.198 1.738,-0.01 3.202,1.437 3.211,3.176 0.009,1.734 -1.439,3.186 -3.187,3.196 -1.744,0.009 -3.198,-1.429 -3.209,-3.174 m -3.007,-6.118 c 0.077,-0.028 0.124,-0.049 0.173,-0.063 1.94,-0.541 3.88,-1.083 5.823,-1.616 0.135,-0.037 0.3,-0.034 0.435,0.003 1.901,0.52 3.799,1.05 5.697,1.578 0.089,0.025 0.173,0.062 0.282,0.102 -0.845,0.933 -1.892,1.342 -3.112,1.347 -2.059,0.009 -4.119,0.015 -6.178,-0.006 -0.454,-0.005 -0.919,-0.085 -1.359,-0.204 -0.694,-0.189 -1.272,-0.582 -1.761,-1.141 m -4.243,-4.931 c 0,0.253 0.006,0.505 -0.002,0.758 -0.014,0.464 -0.358,0.817 -0.791,0.823 -0.434,0.005 -0.793,-0.344 -0.804,-0.806 -0.013,-0.505 -0.012,-1.01 -10e-4,-1.514 0.011,-0.465 0.367,-0.813 0.802,-0.809 0.437,0.003 0.779,0.35 0.794,0.817 0.008,0.244 0.002,0.488 0.002,0.731 m 22.497,0.002 c 0,0.252 0.006,0.505 -0.002,0.757 -0.014,0.468 -0.352,0.815 -0.79,0.822 -0.433,0.006 -0.794,-0.342 -0.805,-0.805 -0.013,-0.504 -0.012,-1.01 -10e-4,-1.514 0.011,-0.459 0.375,-0.815 0.804,-0.81 0.437,0.004 0.777,0.351 0.792,0.819 0.008,0.243 0.002,0.487 0.002,0.731"
             style="fill:#231f20;fill-opacity:1;fill-rule:nonzero;stroke:none"
             id="path338" />
        </g>
        <g
           id="g340"
           transform="translate(46.6599,437.9855)">
          <path
             d="M 0,0 C -1.566,0.441 -3.133,0.878 -4.702,1.31 -5.192,1.445 -5.63,1.211 -5.75,0.77 c -0.116,-0.424 0.14,-0.835 0.617,-0.974 0.399,-0.117 0.801,-0.224 1.201,-0.335 1.175,-0.328 2.349,-0.662 3.527,-0.981 0.539,-0.147 1.027,0.216 1.029,0.742 C 0.626,-0.406 0.401,-0.113 0,0"
             style="fill:#f14f1d;fill-opacity:1;fill-rule:nonzero;stroke:none"
             id="path342" />
        </g>
        <g
           id="g344"
           transform="translate(43.0659,440.4935)">
          <path
             d="m 0,0 c 1.077,-0.313 2.158,-0.612 3.241,-0.908 0.113,-0.031 0.249,-0.024 0.365,0.002 0.363,0.083 0.602,0.377 0.612,0.727 C 4.23,0.208 4.007,0.506 3.594,0.623 2.567,0.916 1.537,1.202 0.507,1.488 0.414,1.513 0.316,1.521 0.272,1.528 -0.171,1.527 -0.51,1.25 -0.57,0.884 -0.636,0.486 -0.419,0.122 0,0"
             style="fill:#f14f1d;fill-opacity:1;fill-rule:nonzero;stroke:none"
             id="path346" />
        </g>
        <g
           id="g348"
           transform="translate(46.6981,444.2399)">
          <path
             d="m 0,0 c -0.525,0.155 -1.053,0.3 -1.584,0.437 -0.455,0.117 -0.88,-0.119 -1.002,-0.539 -0.118,-0.405 0.115,-0.831 0.553,-0.965 0.541,-0.164 1.086,-0.318 1.634,-0.456 0.514,-0.129 0.992,0.255 0.988,0.772 C 0.586,-0.403 0.368,-0.109 0,0"
             style="fill:#f14f1d;fill-opacity:1;fill-rule:nonzero;stroke:none"
             id="path350" />
        </g>
        <g
           id="g352"
           transform="translate(58.4487,438.7812)">
          <path
             d="M 0,0 C -0.134,0.423 -0.552,0.645 -1.013,0.523 -1.594,0.369 -2.172,0.202 -2.75,0.04 c -0.988,-0.277 -1.976,-0.552 -2.962,-0.833 -0.43,-0.122 -0.653,-0.397 -0.651,-0.781 0.002,-0.505 0.479,-0.891 0.979,-0.755 1.613,0.437 3.222,0.888 4.829,1.346 C -0.099,-0.854 0.132,-0.415 0,0"
             style="fill:#f14f1d;fill-opacity:1;fill-rule:nonzero;stroke:none"
             id="path354" />
        </g>
        <g
           id="g356"
           transform="translate(53.0338,439.575)">
          <path
             d="m 0,0 c 1.11,0.297 2.215,0.61 3.317,0.932 0.339,0.099 0.53,0.401 0.529,0.737 0,0.545 -0.504,0.897 -1.08,0.741 C 2.075,2.223 1.388,2.023 0.699,1.828 0.317,1.719 -0.071,1.625 -0.444,1.493 -0.84,1.354 -1.036,0.943 -0.924,0.562 -0.81,0.17 -0.396,-0.106 0,0"
             style="fill:#f14f1d;fill-opacity:1;fill-rule:nonzero;stroke:none"
             id="path358" />
        </g>
        <g
           id="g360"
           transform="translate(53.0575,442.7164)">
          <path
             d="M 0,0 C 0.557,0.141 1.11,0.296 1.659,0.462 2.012,0.568 2.22,0.861 2.223,1.202 2.228,1.671 1.791,2.09 1.341,1.99 0.721,1.851 0.107,1.676 -0.495,1.477 -0.886,1.349 -1.065,0.909 -0.941,0.532 -0.813,0.14 -0.406,-0.103 0,0"
             style="fill:#f14f1d;fill-opacity:1;fill-rule:nonzero;stroke:none"
             id="path362" />
        </g>
      </g>
    </g>
  </g>
</svg>
