<?xml version="1.0" encoding="UTF-8" standalone="no"?>
<svg
   xmlns:dc="http://purl.org/dc/elements/1.1/"
   xmlns:cc="http://creativecommons.org/ns#"
   xmlns:rdf="http://www.w3.org/1999/02/22-rdf-syntax-ns#"
   xmlns:svg="http://www.w3.org/2000/svg"
   xmlns="http://www.w3.org/2000/svg"
   xmlns:sodipodi="http://sodipodi.sourceforge.net/DTD/sodipodi-0.dtd"
   xmlns:inkscape="http://www.inkscape.org/namespaces/inkscape"
   width="36"
   height="36"
   viewBox="0 0 9.5249996 9.5249998"
   version="1.1"
   id="svg1483"
   sodipodi:docname="menu-backlink.svg"
   inkscape:version="1.0.1 (3bc2e813f5, 2020-09-07)">
  <defs
     id="defs1477">
    <clipPath
       clipPathUnits="userSpaceOnUse"
       id="clipPath134">
      <path
         d="M 0,0 H 792 V 612 H 0 Z"
         id="path132" />
    </clipPath>
    <clipPath
       clipPathUnits="userSpaceOnUse"
       id="clipPath334">
      <path
         d="M 0,0 H 792 V 612 H 0 Z"
         id="path332" />
    </clipPath>
    <clipPath
       clipPathUnits="userSpaceOnUse"
       id="clipPath202">
      <path
         d="M 0,0 H 792 V 612 H 0 Z"
         id="path200" />
    </clipPath>
    <clipPath
       clipPathUnits="userSpaceOnUse"
       id="clipPath398">
      <path
         d="M 0,0 H 792 V 612 H 0 Z"
         id="path396" />
    </clipPath>
    <clipPath
       clipPathUnits="userSpaceOnUse"
       id="clipPath266">
      <path
         d="M 0,0 H 792 V 612 H 0 Z"
         id="path264" />
    </clipPath>
    <clipPath
       clipPathUnits="userSpaceOnUse"
       id="clipPath488">
      <path
         d="M 0,0 H 792 V 612 H 0 Z"
         id="path486" />
    </clipPath>
  </defs>
  <sodipodi:namedview
     id="base"
     pagecolor="#ffffff"
     bordercolor="#666666"
     borderopacity="1.0"
     inkscape:pageopacity="0.0"
     inkscape:pageshadow="2"
     inkscape:zoom="11.313709"
     inkscape:cx="25.583709"
     inkscape:cy="13.562327"
     inkscape:document-units="mm"
     inkscape:current-layer="layer1"
     inkscape:document-rotation="0"
     showgrid="false"
     fit-margin-top="0"
     fit-margin-left="0"
     fit-margin-right="0"
     fit-margin-bottom="0"
     units="px"
     inkscape:snap-bbox="true"
     inkscape:snap-bbox-midpoints="true"
     inkscape:window-width="1920"
     inkscape:window-height="1007"
     inkscape:window-x="0"
     inkscape:window-y="36"
     inkscape:window-maximized="1" />
  <metadata
     id="metadata1480">
    <rdf:RDF>
      <cc:Work
         rdf:about="">
        <dc:format>image/svg+xml</dc:format>
        <dc:type
           rdf:resource="http://purl.org/dc/dcmitype/StillImage" />
        <dc:title></dc:title>
      </cc:Work>
    </rdf:RDF>
  </metadata>
  <g
     inkscape:label="Layer 1"
     inkscape:groupmode="layer"
     id="layer1"
     transform="translate(-405.66611,53.326338)">
    <g
       id="g482"
       transform="matrix(0.37150899,0,0,-0.37150899,391.96867,62.561307)">
      <g
         id="g484"
         clip-path="url(#clipPath488)">
        <g
           id="g490"
           transform="translate(62.5004,306.13)">
          <path
             d="m 0,0 c 0,0.474 -0.159,0.834 -0.657,0.972 -0.01,0.039 -0.016,0.078 -0.016,0.117 h -10.638 c 0.002,-0.04 -0.004,-0.079 -0.015,-0.117 -0.463,-0.126 -0.654,-0.451 -0.655,-0.903 -0.003,-1.243 0.008,-2.486 -0.008,-3.728 -0.004,-0.315 0.073,-0.449 0.413,-0.428 0.29,0.018 0.537,-0.013 0.511,0.411 -0.032,0.54 0.014,1.085 -0.015,1.626 -0.02,0.378 0.099,0.498 0.49,0.496 3.068,-0.015 6.136,-0.016 9.204,0 0.402,0.002 0.483,-0.138 0.482,-0.503 -0.012,-3.909 -0.011,-7.817 0,-11.726 0.001,-0.344 -0.078,-0.461 -0.446,-0.46 -3.091,0.015 -6.182,0.014 -9.273,10e-4 -0.353,-10e-4 -0.466,0.087 -0.458,0.449 0.024,1.084 10e-4,2.169 0.013,3.253 0.004,0.327 -0.002,0.548 -0.45,0.545 -0.411,-0.003 -0.477,-0.156 -0.472,-0.514 0.018,-1.355 0.021,-2.711 -10e-4,-4.066 -0.006,-0.392 0.065,-0.557 0.512,-0.555 3.659,0.018 7.318,0.014 10.977,0.004 0.368,-0.001 0.511,0.083 0.51,0.486 C -0.006,-9.76 -0.001,-4.88 0,0 m -10.693,-0.673 c -0.248,0.005 -0.363,0.152 -0.373,0.386 -0.01,0.23 0.085,0.395 0.33,0.425 0.283,0.035 0.404,-0.14 0.465,-0.392 -0.04,-0.233 -0.136,-0.423 -0.422,-0.419 m 1.708,-0.008 c -0.257,0.032 -0.421,0.179 -0.405,0.436 0.015,0.252 0.182,0.406 0.451,0.387 0.233,-0.017 0.362,-0.156 0.365,-0.395 0.005,-0.273 -0.144,-0.404 -0.411,-0.428 m 1.663,0.01 c -0.244,0.027 -0.343,0.19 -0.335,0.422 0.008,0.234 0.121,0.382 0.369,0.39 0.287,0.009 0.384,-0.181 0.427,-0.415 -0.06,-0.25 -0.178,-0.428 -0.461,-0.397"
             style="fill:#11100e;fill-opacity:1;fill-rule:nonzero;stroke:none"
             id="path492" />
        </g>
        <g
           id="g494"
           transform="translate(48.457,302.0434)">
          <path
             d="M 0,0 C 0.341,-0.022 0.415,0.116 0.411,0.429 0.395,1.671 0.407,2.913 0.403,4.155 0.401,4.606 0.212,4.933 -0.251,5.058 -0.263,5.097 -0.268,5.136 -0.266,5.176 h -10.611 c -0.571,0.118 -0.798,-0.108 -0.68,-0.678 0.038,0.014 0.075,0.027 0.113,0.041 V 4.507 c -0.034,0.008 -0.071,0.006 -0.113,-0.009 v -15.456 c 0.04,-0.006 0.079,-0.012 0.119,-0.019 0,10e-4 0,10e-4 0,10e-4 0.136,-0.117 0.301,-0.072 0.453,-0.072 3.614,-0.002 7.227,-0.002 10.841,0 0.153,0 0.318,-0.044 0.453,0.075 0,0 0,0 0,0 0.143,0.095 0.093,0.242 0.094,0.369 0.003,1.4 -0.004,2.8 0.006,4.2 0.002,0.305 -0.011,0.503 -0.419,0.493 -0.374,-0.008 -0.513,-0.093 -0.503,-0.493 0.027,-1.105 0,-2.213 0.015,-3.319 0.005,-0.305 -0.049,-0.435 -0.402,-0.433 -3.104,0.014 -6.209,0.012 -9.313,0.003 -0.305,-10e-4 -0.434,0.055 -0.433,0.401 0.011,3.952 0.01,7.904 0.001,11.856 0,0.318 0.087,0.428 0.418,0.426 3.105,-0.01 6.209,-0.01 9.313,0.001 C -0.58,2.532 -0.486,2.418 -0.498,2.102 -0.518,1.538 -0.479,0.971 -0.511,0.409 -0.536,-0.017 -0.287,0.019 0,0 m -10.889,5.056 v 0 c 10e-4,0.004 10e-4,0.007 0.003,0.011 0,-0.004 0,-0.007 10e-4,-0.011 z m 0.667,-1.642 c -0.242,-0.013 -0.385,0.111 -0.408,0.347 -0.025,0.257 0.073,0.436 0.345,0.469 0.292,0.003 0.433,-0.167 0.433,-0.417 0,-0.212 -0.122,-0.385 -0.37,-0.399 m 1.646,-0.001 c -0.234,0.011 -0.377,0.164 -0.386,0.385 -0.01,0.256 0.138,0.424 0.406,0.43 C -8.285,4.234 -8.15,4.08 -8.144,3.81 -8.16,3.54 -8.309,3.401 -8.576,3.413 m 2.124,0.362 C -6.472,3.566 -6.608,3.4 -6.861,3.413 c -0.289,0.015 -0.386,0.198 -0.37,0.455 0.016,0.237 0.155,0.36 0.413,0.362 0.263,-0.026 0.391,-0.21 0.366,-0.455"
             style="fill:#11100e;fill-opacity:1;fill-rule:nonzero;stroke:none"
             id="path496" />
        </g>
        <g
           id="g498"
           transform="translate(56.5082,299.7694)">
          <path
             d="m 0,0 c -0.006,0.971 -0.475,1.452 -1.452,1.463 -1.021,0.011 -2.042,0.011 -3.064,0 -0.917,-0.01 -1.395,-0.425 -1.461,-1.327 -0.024,-0.337 -0.125,-0.432 -0.439,-0.401 -0.225,0.022 -0.455,0.019 -0.68,0 -0.361,-0.029 -0.559,0.009 -0.573,0.479 -0.023,0.771 -0.542,1.228 -1.329,1.245 -1.111,0.023 -2.224,0.026 -3.336,-0.002 -0.82,-0.021 -1.287,-0.525 -1.302,-1.333 -0.009,-0.496 -0.004,-0.993 -0.001,-1.489 0.006,-0.972 0.472,-1.454 1.449,-1.467 1.021,-0.013 2.042,-0.012 3.063,0 0.916,0.011 1.396,0.428 1.464,1.327 0.026,0.338 0.127,0.432 0.441,0.401 0.224,-0.022 0.454,-0.02 0.68,-10e-4 0.362,0.031 0.558,-0.011 0.571,-0.48 0.022,-0.767 0.543,-1.212 1.331,-1.245 0.544,-0.022 1.089,-0.004 1.634,-0.004 0.522,-10e-4 1.044,-10e-4 1.566,0 0.045,0 0.091,-0.002 0.136,10e-4 0.817,0.058 1.286,0.537 1.301,1.344 C 0.008,-0.993 0.003,-0.496 0,0 m -8.552,-1.465 c -0.019,-0.413 -0.255,-0.468 -0.588,-0.462 -0.521,0.01 -1.042,0.003 -1.564,0.003 -0.521,0 -1.043,0.011 -1.563,-0.003 -0.351,-0.01 -0.492,0.163 -0.509,0.483 -0.002,0.045 -0.003,0.09 -0.002,0.135 0.028,2.301 -0.276,1.811 1.768,1.862 0.612,0.015 1.224,-0.007 1.836,0.005 0.358,0.008 0.623,-0.041 0.622,-0.494 -0.001,-0.482 -0.35,-0.295 -0.579,-0.321 -0.242,-0.027 -0.52,0.044 -0.648,-0.246 -0.065,-0.146 -0.055,-0.304 0.053,-0.445 0.169,-0.22 0.41,-0.14 0.627,-0.159 0.247,-0.022 0.57,0.112 0.547,-0.358 m 5.922,-0.457 c -0.612,-0.014 -1.224,0.007 -1.835,-0.006 -0.36,-0.007 -0.622,0.047 -0.62,0.498 0.003,0.482 0.353,0.299 0.581,0.316 0.322,0.024 0.684,-0.017 0.672,0.45 -0.011,0.417 -0.344,0.386 -0.644,0.408 -0.249,0.018 -0.628,-0.172 -0.609,0.357 0.017,0.479 0.329,0.457 0.658,0.455 0.498,-0.004 0.997,-0.001 1.495,-0.001 0.498,0 0.998,-0.018 1.495,0.005 0.413,0.02 0.582,-0.165 0.578,-0.553 0,-0.022 0.001,-0.045 0,-0.067 -0.025,-2.294 0.264,-1.814 -1.771,-1.862"
             style="fill:#f14f1d;fill-opacity:1;fill-rule:nonzero;stroke:none"
             id="path500" />
        </g>
      </g>
    </g>
  </g>
</svg>
