<?xml version="1.0" encoding="UTF-8" standalone="no"?>
<svg
   xmlns:dc="http://purl.org/dc/elements/1.1/"
   xmlns:cc="http://creativecommons.org/ns#"
   xmlns:rdf="http://www.w3.org/1999/02/22-rdf-syntax-ns#"
   xmlns:svg="http://www.w3.org/2000/svg"
   xmlns="http://www.w3.org/2000/svg"
   xmlns:sodipodi="http://sodipodi.sourceforge.net/DTD/sodipodi-0.dtd"
   xmlns:inkscape="http://www.inkscape.org/namespaces/inkscape"
   width="36"
   height="36"
   viewBox="0 0 9.5249996 9.5249998"
   version="1.1"
   id="svg1483"
   sodipodi:docname="menu-html.svg"
   inkscape:version="1.0.1 (3bc2e813f5, 2020-09-07)">
  <defs
     id="defs1477">
    <clipPath
       clipPathUnits="userSpaceOnUse"
       id="clipPath134">
      <path
         d="M 0,0 H 792 V 612 H 0 Z"
         id="path132" />
    </clipPath>
    <clipPath
       clipPathUnits="userSpaceOnUse"
       id="clipPath334">
      <path
         d="M 0,0 H 792 V 612 H 0 Z"
         id="path332" />
    </clipPath>
    <clipPath
       clipPathUnits="userSpaceOnUse"
       id="clipPath202">
      <path
         d="M 0,0 H 792 V 612 H 0 Z"
         id="path200" />
    </clipPath>
    <clipPath
       clipPathUnits="userSpaceOnUse"
       id="clipPath398">
      <path
         d="M 0,0 H 792 V 612 H 0 Z"
         id="path396" />
    </clipPath>
    <clipPath
       clipPathUnits="userSpaceOnUse"
       id="clipPath266">
      <path
         d="M 0,0 H 792 V 612 H 0 Z"
         id="path264" />
    </clipPath>
    <clipPath
       clipPathUnits="userSpaceOnUse"
       id="clipPath488">
      <path
         d="M 0,0 H 792 V 612 H 0 Z"
         id="path486" />
    </clipPath>
    <clipPath
       clipPathUnits="userSpaceOnUse"
       id="clipPath512">
      <path
         d="M 0,0 H 792 V 612 H 0 Z"
         id="path510" />
    </clipPath>
    <clipPath
       clipPathUnits="userSpaceOnUse"
       id="clipPath426">
      <path
         d="M 0,0 H 792 V 612 H 0 Z"
         id="path424" />
    </clipPath>
    <clipPath
       clipPathUnits="userSpaceOnUse"
       id="clipPath426-2">
      <path
         d="M 0,0 H 792 V 612 H 0 Z"
         id="path424-8" />
    </clipPath>
    <clipPath
       clipPathUnits="userSpaceOnUse"
       id="clipPath444">
      <path
         d="M 0,0 H 792 V 612 H 0 Z"
         id="path442" />
    </clipPath>
    <clipPath
       clipPathUnits="userSpaceOnUse"
       id="clipPath464">
      <path
         d="M 0,0 H 792 V 612 H 0 Z"
         id="path462" />
    </clipPath>
    <clipPath
       clipPathUnits="userSpaceOnUse"
       id="clipPath46">
      <path
         d="M 0,0 H 792 V 612 H 0 Z"
         id="path44" />
    </clipPath>
    <clipPath
       clipPathUnits="userSpaceOnUse"
       id="clipPath66">
      <path
         d="M 0,0 H 792 V 612 H 0 Z"
         id="path64" />
    </clipPath>
    <clipPath
       clipPathUnits="userSpaceOnUse"
       id="clipPath286">
      <path
         d="M 0,0 H 792 V 612 H 0 Z"
         id="path284" />
    </clipPath>
  </defs>
  <sodipodi:namedview
     id="base"
     pagecolor="#ffffff"
     bordercolor="#666666"
     borderopacity="1.0"
     inkscape:pageopacity="0.0"
     inkscape:pageshadow="2"
     inkscape:zoom="11.313709"
     inkscape:cx="25.583709"
     inkscape:cy="2.9557257"
     inkscape:document-units="mm"
     inkscape:current-layer="layer1"
     inkscape:document-rotation="0"
     showgrid="false"
     fit-margin-top="0"
     fit-margin-left="0"
     fit-margin-right="0"
     fit-margin-bottom="0"
     units="px"
     inkscape:snap-bbox="true"
     inkscape:snap-bbox-midpoints="true"
     inkscape:window-width="1920"
     inkscape:window-height="1007"
     inkscape:window-x="0"
     inkscape:window-y="36"
     inkscape:window-maximized="1" />
  <metadata
     id="metadata1480">
    <rdf:RDF>
      <cc:Work
         rdf:about="">
        <dc:format>image/svg+xml</dc:format>
        <dc:type
           rdf:resource="http://purl.org/dc/dcmitype/StillImage" />
        <dc:title></dc:title>
      </cc:Work>
    </rdf:RDF>
  </metadata>
  <g
     inkscape:label="Layer 1"
     inkscape:groupmode="layer"
     id="layer1"
     transform="translate(-405.66611,53.326338)">
    <g
       id="g280"
       transform="matrix(0.41284317,0,0,-0.41284317,389.91484,0.12707793)">
      <g
         id="g282"
         clip-path="url(#clipPath286)">
        <g
           id="g288"
           transform="translate(53.073,128.1086)">
          <path
             d="M 0,0 C 0.153,-0.065 0.306,-0.13 0.458,-0.195 0.51,-0.244 0.574,-0.269 0.642,-0.282 0.788,-0.363 0.937,-0.436 1.099,-0.48 1.146,-0.504 1.194,-0.527 1.242,-0.551 1.408,-0.624 1.573,-0.697 1.738,-0.77 1.771,-0.784 1.803,-0.797 1.835,-0.81 1.993,-0.899 2.156,-0.977 2.33,-1.028 2.387,-1.076 2.452,-1.105 2.525,-1.115 2.685,-1.21 2.853,-1.285 3.031,-1.339 3.066,-1.378 3.113,-1.394 3.164,-1.4 3.29,-1.479 3.425,-1.538 3.569,-1.579 3.65,-1.618 3.732,-1.657 3.813,-1.696 3.98,-1.768 4.147,-1.839 4.313,-1.91 4.361,-1.933 4.408,-1.956 4.456,-1.979 4.604,-2.055 4.75,-2.133 4.913,-2.174 4.94,-2.218 4.985,-2.221 5.03,-2.227 5.203,-2.308 5.377,-2.388 5.551,-2.469 L 5.692,-2.545 C 5.812,-2.658 5.932,-2.772 6.051,-2.886 6.069,-2.908 6.086,-2.931 6.104,-2.953 6.18,-3.132 6.266,-3.307 6.302,-3.5 6.298,-3.564 6.293,-3.628 6.325,-3.688 6.302,-3.916 6.3,-4.144 6.325,-4.372 6.302,-4.451 6.302,-4.529 6.329,-4.607 6.297,-4.835 6.303,-5.063 6.325,-5.291 6.302,-5.37 6.302,-5.448 6.329,-5.526 6.297,-5.754 6.303,-5.982 6.325,-6.21 6.302,-6.288 6.302,-6.367 6.329,-6.445 6.297,-6.673 6.303,-6.9 6.325,-7.128 6.302,-7.207 6.302,-7.286 6.329,-7.364 6.297,-7.591 6.303,-7.819 6.325,-8.047 6.302,-8.126 6.302,-8.204 6.329,-8.282 6.297,-8.51 6.303,-8.738 6.325,-8.966 6.302,-9.045 6.302,-9.123 6.329,-9.201 6.289,-9.414 6.302,-9.629 6.303,-9.843 6.3,-9.95 6.296,-10.057 6.293,-10.164 c -0.026,-0.234 -0.053,-0.468 -0.08,-0.702 -0.014,-0.103 -0.028,-0.207 -0.042,-0.31 -0.052,-0.29 -0.104,-0.581 -0.156,-0.871 -0.053,-0.067 -0.047,-0.148 -0.052,-0.227 -0.094,-0.323 -0.187,-0.646 -0.281,-0.969 -0.04,-0.123 -0.08,-0.245 -0.12,-0.367 l -0.479,-1.15 c -0.072,-0.152 -0.144,-0.304 -0.216,-0.456 v 0.002 c -0.039,-0.02 -0.046,-0.055 -0.048,-0.093 -0.329,-0.56 -0.655,-1.121 -1.032,-1.65 -0.344,-0.461 -0.719,-0.896 -1.092,-1.332 -0.166,-0.165 -0.331,-0.331 -0.497,-0.496 -0.417,-0.359 -0.835,-0.719 -1.276,-1.049 -0.544,-0.385 -1.12,-0.716 -1.703,-1.035 -0.151,-0.067 -0.302,-0.134 -0.453,-0.2 -0.46,-0.187 -0.93,-0.344 -1.398,-0.508 -0.568,-0.198 -1.108,-0.151 -1.656,0.048 -0.171,0.063 -0.349,0.109 -0.524,0.162 -0.072,0.052 -0.153,0.079 -0.241,0.089 -0.15,0.062 -0.301,0.124 -0.452,0.186 -0.055,0.048 -0.121,0.073 -0.193,0.085 -0.158,0.1 -0.326,0.178 -0.501,0.243 -0.038,0.042 -0.084,0.071 -0.141,0.079 -0.117,0.065 -0.233,0.129 -0.349,0.193 -0.044,0.053 -0.103,0.079 -0.166,0.099 -0.165,0.103 -0.33,0.207 -0.494,0.31 -0.013,0.037 -0.043,0.046 -0.076,0.05 -0.113,0.108 -0.24,0.198 -0.376,0.273 -0.063,0.047 -0.126,0.095 -0.189,0.142 -0.137,0.11 -0.275,0.22 -0.412,0.33 -0.031,0.028 -0.062,0.055 -0.093,0.082 -0.123,0.108 -0.246,0.216 -0.368,0.324 -0.034,0.058 -0.079,0.103 -0.139,0.133 -0.092,0.091 -0.183,0.182 -0.274,0.273 -0.062,0.062 -0.123,0.125 -0.185,0.188 -0.095,0.104 -0.19,0.208 -0.285,0.312 -0.043,0.049 -0.086,0.098 -0.128,0.147 -0.106,0.126 -0.212,0.252 -0.317,0.379 -0.015,0.055 -0.049,0.096 -0.097,0.126 -0.091,0.121 -0.182,0.243 -0.273,0.364 -0.032,0.074 -0.074,0.141 -0.138,0.192 -0.08,0.119 -0.159,0.237 -0.239,0.355 -0.042,0.067 -0.085,0.133 -0.128,0.199 -0.072,0.121 -0.144,0.242 -0.216,0.364 -0.036,0.06 -0.072,0.121 -0.107,0.182 -0.074,0.137 -0.148,0.274 -0.222,0.412 -0.018,0.07 -0.046,0.136 -0.098,0.189 -0.067,0.148 -0.135,0.296 -0.203,0.444 -0.025,0.048 -0.05,0.095 -0.075,0.143 -0.066,0.167 -0.132,0.334 -0.199,0.501 -0.019,0.049 -0.038,0.098 -0.057,0.147 -0.058,0.166 -0.116,0.332 -0.173,0.498 -0.024,0.062 -0.048,0.125 -0.071,0.188 -0.052,0.182 -0.103,0.364 -0.154,0.546 -0.017,0.062 -0.033,0.124 -0.049,0.185 -0.044,0.184 -0.088,0.367 -0.132,0.551 0.005,0.066 0.003,0.13 -0.04,0.185 l -0.097,0.596 c 0.004,0.065 0.01,0.13 -0.03,0.188 -0.021,0.213 -0.042,0.426 -0.064,0.639 -0.002,0.062 -0.005,0.124 -0.008,0.186 -0.011,0.229 -0.022,0.458 -0.033,0.687 -0.001,0.077 -0.002,0.154 -0.002,0.23 0,0.23 0,0.459 0,0.689 0,0.077 0,0.153 -10e-4,0.23 10e-4,0.23 10e-4,0.459 10e-4,0.689 0,0.076 0,0.153 -10e-4,0.23 10e-4,0.229 10e-4,0.459 10e-4,0.688 0,0.077 0,0.154 -10e-4,0.231 10e-4,0.229 10e-4,0.459 10e-4,0.688 0,0.077 0,0.154 -10e-4,0.231 10e-4,0.229 10e-4,0.459 10e-4,0.688 0,0.077 0,0.154 -10e-4,0.23 10e-4,0.23 10e-4,0.459 10e-4,0.689 10e-4,0.077 0.002,0.153 0.003,0.23 0.084,0.656 0.453,1.074 1.067,1.297 0.155,0.057 0.3,0.143 0.449,0.216 0.039,10e-4 0.076,0.005 0.096,0.045 l -10e-4,-0.001 c 0.145,0.036 0.28,0.097 0.408,0.174 0.39,0.158 0.778,0.32 1.151,0.517 0.039,10e-4 0.076,0.005 0.096,0.045 0,0 -10e-4,-0.001 -10e-4,-0.001 0.145,0.036 0.28,0.097 0.407,0.174 0.391,0.158 0.779,0.32 1.152,0.517 0.039,0.001 0.076,0.005 0.096,0.045 0,0 -0.002,-0.001 -0.002,-0.001 0.146,0.036 0.281,0.097 0.408,0.174 0.391,0.158 0.779,0.32 1.152,0.517 0.038,0.001 0.075,0.005 0.096,0.045 L -6.521,0.122 c 0.146,0.036 0.28,0.097 0.408,0.174 0.391,0.158 0.779,0.32 1.152,0.517 0.038,0.001 0.075,0.005 0.096,0.045 L -4.867,0.857 c 0.145,0.036 0.28,0.097 0.408,0.174 0.196,0.082 0.392,0.165 0.589,0.245 0.394,0.161 0.776,0.091 1.154,-0.063 C -2.668,1.191 -2.62,1.168 -2.571,1.146 -2.427,1.068 -2.28,0.994 -2.121,0.95 -2.045,0.915 -1.969,0.879 -1.893,0.843 -1.737,0.776 -1.581,0.708 -1.426,0.64 -1.387,0.605 -1.344,0.581 -1.29,0.581 -1.163,0.499 -1.026,0.441 -0.882,0.399 -0.796,0.336 -0.7,0.297 -0.598,0.269 -0.452,0.189 -0.304,0.114 -0.141,0.073 -0.094,0.048 -0.047,0.024 0,0"
             style="fill:#f14f1d;fill-opacity:1;fill-rule:nonzero;stroke:none"
             id="path290" />
        </g>
        <g
           id="g292"
           transform="translate(55.6073,121.0569)">
          <path
             d="M 0,0 C -0.004,-0.377 -0.115,-0.664 -0.347,-0.896 -2.396,-2.948 -4.444,-5 -6.5,-7.046 c -0.479,-0.476 -1.212,-0.477 -1.694,-0.002 -1.1,1.086 -2.193,2.179 -3.279,3.279 -0.492,0.497 -0.479,1.255 0.003,1.728 0.483,0.473 1.225,0.465 1.729,-0.033 0.746,-0.736 1.489,-1.475 2.22,-2.226 0.15,-0.155 0.219,-0.126 0.353,0.008 1.673,1.682 3.351,3.359 5.029,5.035 0.474,0.473 1.075,0.56 1.58,0.23 C -0.193,0.734 -0.011,0.389 0,0"
             style="fill:#231f20;fill-opacity:1;fill-rule:nonzero;stroke:none"
             id="path294" />
        </g>
        <g
           id="g296"
           transform="translate(55.6073,121.0569)">
          <path
             d="M 0,0 C -0.003,-0.377 -0.115,-0.664 -0.347,-0.896 -2.396,-2.948 -4.444,-5 -6.5,-7.046 c -0.479,-0.476 -1.212,-0.477 -1.694,-0.002 -1.1,1.086 -2.193,2.179 -3.279,3.279 -0.492,0.497 -0.479,1.255 0.003,1.728 0.483,0.473 1.225,0.465 1.729,-0.033 0.746,-0.736 1.489,-1.475 2.22,-2.226 0.151,-0.155 0.219,-0.126 0.353,0.008 1.673,1.682 3.351,3.359 5.029,5.035 0.474,0.473 1.076,0.56 1.58,0.23 C -0.193,0.734 -0.011,0.389 0,0"
             style="fill:#ffffff;fill-opacity:1;fill-rule:nonzero;stroke:none"
             id="path298" />
        </g>
      </g>
    </g>
  </g>
</svg>
